<?xml version="1.0" encoding="utf-8"?>
<!-- Generator: Adobe Illustrator 23.0.0, SVG Export Plug-In . SVG Version: 6.00 Build 0)  -->
<svg version="1.1" id="Слой_1" xmlns="http://www.w3.org/2000/svg" xmlns:xlink="http://www.w3.org/1999/xlink" x="0px" y="0px"
	 viewBox="0 0 285.3 110.5" style="enable-background:new 0 0 285.3 110.5;" xml:space="preserve">
<style type="text/css">
	.st0{font-family:'Broadway';}
	.st1{font-size:53.542px;}
	.st2{fill:none;stroke:#000000;stroke-width:0.2;stroke-miterlimit:10;}
	.st3{letter-spacing:1.2;}
	.st4{font-family:'ArialMT';}
	.st5{font-size:37.412px;}
	.st6{stroke:#000000;stroke-width:0.2;stroke-miterlimit:10;}
	.st7{opacity:0.83;fill:url(#SVGID_1_);enable-background:new    ;}
	.st8{opacity:0.83;enable-background:new    ;}
	.st9{fill:none;}
	.st10{fill:#FFFFFF;}
	.st11{font-family:'MalgunGothic-Semilight';}
	.st12{font-size:8.616px;}
</style>
	<g transform=" matrix(0.366, -0.21, 0.22, 0.113, 95, 75)">
	<path d="M 0,70 A 65,70 0 0,0 65,0 5,5 0 0,1 75,0 75,70 0 0,1 0,70Z" fill="red">
            <animateTransform attributeName="transform" type="rotate" from="360 0 0" to="0 0 0" dur="1s" repeatCount="indefinite" />
        </path>
        </g>
	<g transform=" matrix(0.366, -0.21, 0.22, 0.113, 95, 75)">
	<path d="M 0,70 A 65,70 0 0,0 65,0 5,5 0 0,1 75,0 75,70 0 0,1 0,70Z" fill="fff">
            <animateTransform attributeName="transform" type="rotate" from="360 0 0" to="0 0 0" dur="0.87s" repeatCount="indefinite" />
        </path>
        </g>
	<g transform=" matrix(0.366, 0.21, -0.22, 0.113, 95, 75)">
	<path d="M 0,70 A 65,70 0 0,0 65,0 5,5 0 0,1 75,0 75,70 0 0,1 0,70Z" fill="red">
            <animateTransform attributeName="transform" type="rotate" from="360 0 0" to="0 0 0" dur="0.9s" repeatCount="indefinite" />
        </path>
        </g>
	<g transform=" matrix(0.366, 0.21, -0.22, 0.113, 95, 75)">
	<path d="M 0,70 A 65,70 0 0,0 65,0 5,5 0 0,1 75,0 75,70 0 0,1 0,70Z" fill="fff">
            <animateTransform attributeName="transform" type="rotate" from="360 0 0" to="0 0 0" dur="0.77s" repeatCount="indefinite" />
        </path>
        </g>
<g id="Слой_9">
	<text transform="matrix(0.86 0 0 1 37.296 55.0668)" class="st0 st1">S</text>
	<text transform="matrix(0.86 0 0 1 37.296 55.0668)" class="st2 st0 st1">S</text>
	<text transform="matrix(0.86 0 0 1 64.7936 55.0668)" class="st0 st1">e</text>
	<text transform="matrix(0.86 0 0 1 92.3566 55.0668)" class="st0 st1 st3">r</text>
	<text transform="matrix(0.86 0 0 1 118.2804 55.0668)" class="st0 st1">vice</text>
	<text transform="matrix(1.19 0 0 1 130.3156 85.6947)" class="st4 st5">Keeper</text>
</g>

<path d="M39.5,73.6c1.5,0,1.5-2.4,0-2.4C37.9,71.2,37.9,73.6,39.5,73.6z"/>
<path d="M100.3,70.4c1.5,0,1.5-2.4,0-2.4C98.8,68,98.8,70.4,100.3,70.4z"/>
<path d="M122.5,77.7c1.5,0,1.5-2.4,0-2.4S121,77.7,122.5,77.7z"/>
<path d="M87.7,66.2c1.5,0,1.5-2.4,0-2.4S86.2,66.2,87.7,66.2z"/>
<path class="st6" d="M100.3,68.5l-25.4-0.1l-5.7-5.6H48.5l-8.9,8.5l1,1.1l8.6-8.2h19.4l5.6,5.4l0.3,0.3l25.8,0L100.3,68.5z"/>
<polygon class="st6" points="88.9,64.3 102.5,64.3 111.2,73.1 120.1,73.1 122.9,75.6 122,76.8 119.6,74.4 110.9,74.6 101.9,65.7 
	88.5,65.9 "/>
<linearGradient id="SVGID_1_" gradientUnits="userSpaceOnUse" x1="630.325" y1="-20.8682" x2="647.549" y2="-35.1602" gradientTransform="matrix(-0.9829 0.1841 0.1841 0.9829 727.939 -14.8008)">
	<stop  offset="0.76" style="stop-color:#F71B0D"/>
	<stop  offset="1" style="stop-color:#FFFFFF"/>
</linearGradient>
<path class="st7" d="M94.9,90.2c-8.2,0-14.8-6.6-14.8-14.8s6.6-14.8,14.8-14.8s14.8,6.6,14.8,14.8S103.1,90.2,94.9,90.2"/>
<path d="M11.2,8.2c0.1,3.6,0.1,7.1,0.2,10.7l0.1,10.7l0.1,10.7l0.1,10.7c0,7.1,0.1,14.2,0.1,21.3l0,10.7l0,10.7l-0.6-0.6l24.7-0.3
	l24.7-0.2l24.7-0.2L110,92l24.7-0.2l24.7-0.1l24.7-0.1l12.3,0l12.3,0l-12.3,0.2L184,91.9l-24.7,0.4l-24.7,0.4L110,93l-24.7,0.3
	l-24.7,0.3l-24.7,0.3l-24.7,0.2l-0.6,0v-0.6l0-10.7l0-10.7c0-7.1,0.1-14.2,0.1-21.3l0.1-10.7L11,29.6l0.1-10.7
	C11.1,15.4,11.2,11.8,11.2,8.2z"/>
<g id="Слой_11">
	<g>
		<rect x="47.7" y="97.7" class="st8" width="218.7" height="9.4"/>
		<rect x="52.3" y="96.7" class="st9" width="188.2" height="9.7"/>
		<text transform="matrix(1.1615 0 0 1 52.2691 104.3715)" class="st10 st11 st12">система управления сервисным центром</text>
	</g>
</g>
</svg>
