<?xml version="1.0" encoding="utf-8"?>
<!-- Generator: Adobe Illustrator 23.0.3, SVG Export Plug-In . SVG Version: 6.00 Build 0)  -->
<svg version="1.1" id="Слой_1" xmlns="http://www.w3.org/2000/svg" xmlns:xlink="http://www.w3.org/1999/xlink" x="0px" y="0px"
	 viewBox="0 0 285.3 110.5" style="enable-background:new 0 0 285.3 110.5;" xml:space="preserve">
<style type="text/css">
	.st0{fill:#FF0000;}
	.st1{enable-background:new    ;}
	.st2{fill:none;stroke:#000000;stroke-width:0.2;stroke-miterlimit:10;}
	.st3{stroke:#000000;stroke-width:0.2;stroke-miterlimit:10;}
	.st4{opacity:0.83;fill:url(#SVGID_1_);enable-background:new    ;}
	.st5{opacity:0.83;enable-background:new    ;}
	.st6{fill:none;}
	.st7{fill:#FFFFFF;}
</style>
<g transform=" matrix(0.366, -0.21, 0.22, 0.113, 95, 75)">
	<path class="st0" d="M0,70c35.9,0,65-31.3,65-70c0-2.8,2.2-5,5-5s5,2.2,5,5C75,38.7,41.4,70,0,70z	">
<animateTransform  accumulate="none" additive="replace" attributeName="transform" calcMode="linear" dur="1s" fill="remove" from="360 0 0" repeatCount="indefinite" restart="always" to="0 0 0" type="rotate">
			</animateTransform>
	</path>
</g>
<g transform=" matrix(0.366, -0.21, 0.22, 0.113, 95, 75)">
	<path d="M0,70c35.9,0,65-31.3,65-70c0-2.8,2.2-5,5-5s5,2.2,5,5C75,38.7,41.4,70,0,70z	">
<animateTransform  accumulate="none" additive="replace" attributeName="transform" calcMode="linear" dur="0.87s" fill="remove" from="360 0 0" repeatCount="indefinite" restart="always" to="0 0 0" type="rotate">
			</animateTransform>
	</path>
</g>
<g transform=" matrix(0.366, 0.21, -0.22, 0.113, 95, 75)">
	<path class="st0" d="M0,70c35.9,0,65-31.3,65-70c0-2.8,2.2-5,5-5s5,2.2,5,5C75,38.7,41.4,70,0,70z	">
<animateTransform  accumulate="none" additive="replace" attributeName="transform" calcMode="linear" dur="0.9s" fill="remove" from="360 0 0" repeatCount="indefinite" restart="always" to="0 0 0" type="rotate">
			</animateTransform>
	</path>
</g>
<g transform=" matrix(0.366, 0.21, -0.22, 0.113, 95, 75)">
	<path d="M0,70c35.9,0,65-31.3,65-70c0-2.8,2.2-5,5-5s5,2.2,5,5C75,38.7,41.4,70,0,70z	">
<animateTransform  accumulate="none" additive="replace" attributeName="transform" calcMode="linear" dur="0.77s" fill="remove" from="360 0 0" repeatCount="indefinite" restart="always" to="0 0 0" type="rotate">
			</animateTransform>
	</path>
</g>
<g id="Слой_9">
	<g class="st1">
		<path d="M39.6,49c0.3,0,0.6,0.2,0.9,0.7c1.1,1.4,2.5,2.6,4.1,3.4s3.2,1.3,4.8,1.3c1.8,0,2.6-0.6,2.6-1.9c0-0.8-0.3-1.7-0.9-2.7
			c-0.6-1-2.1-2.9-4.4-5.8c-2.9-3.7-4.9-6.4-5.8-8.2c-1.3-2.4-1.9-4.6-1.9-6.7c0-3.2,1.2-5.8,3.7-7.9c2.4-2,5.4-3,8.9-3
			c2.5,0,4.7,0.6,6.8,1.8c0.8,0.5,1.5,1,2,1.6c0.6,0.6,0.8,1.1,0.8,1.5c0,0.2-0.1,0.4-0.2,0.5c-0.2,0.2-0.3,0.2-0.5,0.2
			c-0.3,0-0.6-0.3-1.1-0.8c-0.8-0.9-1.9-1.6-3.2-2.2C55,20.3,53.7,20,52.5,20c-0.7,0-1.4,0.2-1.8,0.6s-0.7,0.9-0.7,1.5
			c0,0.7,0.3,1.6,0.9,2.6c0.6,1,1.6,2.4,3,4.1c4.4,5.5,7.1,9.1,8.1,11c1,2,1.6,3.9,1.6,5.8c0,1.6-0.4,3.1-1.1,4.5
			c-0.7,1.4-1.8,2.6-3.1,3.5c-2.5,1.7-5.5,2.6-9.1,2.6c-3.3,0-6.2-1-8.7-3c-1.8-1.4-2.6-2.5-2.6-3.3c0-0.2,0.1-0.4,0.2-0.6
			C39.2,49.1,39.4,49,39.6,49z"/>
	</g>
	<g class="st1">
		<path class="st2" d="M39.6,49c0.3,0,0.6,0.2,0.9,0.7c1.1,1.4,2.5,2.6,4.1,3.4s3.2,1.3,4.8,1.3c1.8,0,2.6-0.6,2.6-1.9
			c0-0.8-0.3-1.7-0.9-2.7c-0.6-1-2.1-2.9-4.4-5.8c-2.9-3.7-4.9-6.4-5.8-8.2c-1.3-2.4-1.9-4.6-1.9-6.7c0-3.2,1.2-5.8,3.7-7.9
			c2.4-2,5.4-3,8.9-3c2.5,0,4.7,0.6,6.8,1.8c0.8,0.5,1.5,1,2,1.6c0.6,0.6,0.8,1.1,0.8,1.5c0,0.2-0.1,0.4-0.2,0.5
			c-0.2,0.2-0.3,0.2-0.5,0.2c-0.3,0-0.6-0.3-1.1-0.8c-0.8-0.9-1.9-1.6-3.2-2.2C55,20.3,53.7,20,52.5,20c-0.7,0-1.4,0.2-1.8,0.6
			s-0.7,0.9-0.7,1.5c0,0.7,0.3,1.6,0.9,2.6c0.6,1,1.6,2.4,3,4.1c4.4,5.5,7.1,9.1,8.1,11c1,2,1.6,3.9,1.6,5.8c0,1.6-0.4,3.1-1.1,4.5
			c-0.7,1.4-1.8,2.6-3.1,3.5c-2.5,1.7-5.5,2.6-9.1,2.6c-3.3,0-6.2-1-8.7-3c-1.8-1.4-2.6-2.5-2.6-3.3c0-0.2,0.1-0.4,0.2-0.6
			C39.2,49.1,39.4,49,39.6,49z"/>
	</g>
	<g class="st1">
		<path d="M76.4,41.6v8.1c0,1.6,0.1,2.6,0.2,3c0.3,0.8,1.1,1.2,2.2,1.2c1.7,0,3.5-0.6,5.2-1.7c1.7-1.1,3.2-2.6,4.4-4.6
			c0.4-0.6,0.7-1.1,0.9-1.2c0.2-0.2,0.4-0.3,0.6-0.3c0.3,0,0.5,0.1,0.6,0.3c0.2,0.2,0.2,0.5,0.2,0.8c0,0.7-0.5,1.7-1.5,3
			c-1.3,1.6-3,2.9-4.9,3.9s-3.9,1.5-5.7,1.5c-3.2,0-6-1.2-8.5-3.7c-1.4-1.5-2.5-3.3-3.3-5.4c-0.7-1.9-1-3.8-1-5.6
			c0-1.8,0.3-3.6,0.9-5.5c0.6-1.8,1.4-3.4,2.5-4.7c1.2-1.6,2.7-2.8,4.3-3.6c1.6-0.8,3.3-1.3,5.1-1.3c2.8,0,5.3,0.9,7.5,2.8
			c3.5,3,5.2,7.3,5.2,12.9h-5.2l-6.7,0L76.4,41.6z M82.1,39.9v-7.6c0-1.6-0.1-2.6-0.1-2.9c0-0.3-0.1-0.6-0.3-0.9
			c-0.4-0.7-1.3-1-2.6-1c-1.3,0-2.1,0.4-2.5,1.2c-0.2,0.5-0.3,1.7-0.3,3.7v7.6l2.7,0.1L82.1,39.9z"/>
	</g>
	<g class="st1">
		<path d="M106.5,34.6l0,10l0.1,10.4H95l0-1.4l0-5.3l0.1-9.6L95,28l0-1.5h11.5v5.4c1.7-2.1,2.9-3.5,3.6-4c1.6-1.3,3-1.9,4.4-1.9
			c0.8,0,1.5,0.2,2.1,0.6c0.5,0.4,0.8,1,0.8,1.6c0,0.5-0.2,0.9-0.5,1.3s-0.7,0.5-1.2,0.5c-0.3,0-0.7-0.1-1.1-0.3
			c-0.7-0.4-1.2-0.5-1.6-0.5c-1.1,0-2.1,0.4-3.1,1.3S107.7,32.6,106.5,34.6z"/>
	</g>
	<g class="st1">
		<path d="M139.1,41.8c3.5-7.2,5.7-11.9,6.4-14c0.4-1,0.7-1.7,0.8-1.9c0.2-0.3,0.4-0.4,0.7-0.4c0.3,0,0.6,0.1,0.8,0.3
			c0.2,0.2,0.4,0.4,0.4,0.7c0,0.3-0.2,0.7-0.5,1.4l-13.1,27.4l-0.7,1.5l-6-11l-2-3.6l-2.1-3.7l-1.8-3.3l-5.1-8.6h14l5.4,10.5
			L139.1,41.8z"/>
		<path d="M161.5,26.5v0.8l0,4.1l0,6.3l-0.1,9.6l0.1,5.4l0,2.4h-11.6l0.1-9.6l0.1-8.5l0-4.5l-0.1-5l0-1H161.5z M155.7,17.4
			c4,0,5.9,1.2,5.9,3.6c0,1.2-0.5,2.1-1.6,2.7c-1,0.7-2.5,1-4.4,1c-3.8,0-5.6-1.2-5.6-3.7C150,18.6,151.9,17.4,155.7,17.4z"/>
		<path d="M177.4,32.2v17.5l0,1.7c0,1.1,0.1,1.8,0.3,2.2c0.2,0.4,0.7,0.5,1.4,0.5c1.8,0,3.5-0.6,5.2-1.9c1.7-1.3,3.1-3,4.2-5.1
			c0.3-0.6,0.7-1,1-1c0.2,0,0.4,0.1,0.6,0.4s0.3,0.5,0.3,0.7c0,0.6-0.4,1.5-1.3,2.7s-1.9,2.2-3,3.1c-2.4,1.8-4.9,2.7-7.6,2.7
			c-3.7,0-6.7-1.3-9.1-4c-2.7-3-4.1-6.6-4.1-11c0-4.5,1.4-8.2,4.3-11.1c2.4-2.5,5.4-3.8,8.9-3.8c2.8,0,5.3,0.8,7.4,2.3
			c0.9,0.7,1.6,1.4,2.2,2.1c0.6,0.8,0.9,1.4,0.9,1.9c0,0.3-0.1,0.5-0.2,0.7s-0.4,0.3-0.6,0.3c-0.3,0-0.7-0.4-1.2-1.3
			c-0.7-1.2-1.8-2.2-3.3-3c-1.5-0.9-2.9-1.3-4.2-1.3c-0.9,0-1.5,0.3-1.7,0.9C177.5,29,177.4,30.2,177.4,32.2z"/>
		<path d="M201.7,41.6v8.1c0,1.6,0.1,2.6,0.2,3c0.3,0.8,1.1,1.2,2.2,1.2c1.7,0,3.5-0.6,5.2-1.7c1.7-1.1,3.2-2.6,4.4-4.6
			c0.4-0.6,0.7-1.1,0.9-1.2c0.2-0.2,0.4-0.3,0.6-0.3c0.3,0,0.5,0.1,0.6,0.3c0.2,0.2,0.2,0.5,0.2,0.8c0,0.7-0.5,1.7-1.5,3
			c-1.3,1.6-3,2.9-4.9,3.9s-3.9,1.5-5.7,1.5c-3.2,0-6-1.2-8.5-3.7c-1.4-1.5-2.5-3.3-3.3-5.4c-0.7-1.9-1-3.8-1-5.6
			c0-1.8,0.3-3.6,0.9-5.5c0.6-1.8,1.4-3.4,2.5-4.7c1.2-1.6,2.7-2.8,4.3-3.6c1.6-0.8,3.3-1.3,5.1-1.3c2.8,0,5.3,0.9,7.5,2.8
			c3.5,3,5.2,7.3,5.2,12.9h-5.2l-6.7,0L201.7,41.6z M207.5,39.9v-7.6c0-1.6-0.1-2.6-0.1-2.9c0-0.3-0.1-0.6-0.3-0.9
			c-0.4-0.7-1.3-1-2.6-1c-1.3,0-2.1,0.4-2.5,1.2c-0.2,0.5-0.3,1.7-0.3,3.7v7.6l2.7,0.1L207.5,39.9z"/>
	</g>
	<g class="st1">
		<path d="M133.6,85.7V58.9h4.2v13.3l15.8-13.3h5.7L146,69.8l14,15.9h-5.6L143,72.1l-5.2,4.3v9.3H133.6z"/>
		<path d="M178.7,79.4l4,0.4c-0.6,2-1.8,3.5-3.5,4.6s-3.9,1.6-6.6,1.6c-3.4,0-6.1-0.9-8-2.6c-2-1.7-3-4.2-3-7.4c0-3.3,1-5.8,3-7.6
			c2-1.8,4.6-2.7,7.8-2.7c3.1,0,5.6,0.9,7.6,2.6c2,1.8,2.9,4.3,2.9,7.5c0,0.2,0,0.5,0,0.9h-17.2c0.1,2.1,0.9,3.8,2.2,4.9
			c1.3,1.1,2.9,1.7,4.8,1.7c1.4,0,2.7-0.3,3.7-1C177.4,81.8,178.2,80.8,178.7,79.4z M165.9,74.1h12.9c-0.2-1.6-0.7-2.9-1.5-3.7
			c-1.2-1.3-2.9-1.9-4.8-1.9c-1.8,0-3.3,0.5-4.5,1.5C166.7,71.1,166,72.4,165.9,74.1z"/>
		<path d="M203.5,79.4l4,0.4c-0.6,2-1.8,3.5-3.5,4.6s-3.9,1.6-6.6,1.6c-3.4,0-6.1-0.9-8-2.6c-2-1.7-3-4.2-3-7.4c0-3.3,1-5.8,3-7.6
			c2-1.8,4.6-2.7,7.8-2.7c3.1,0,5.6,0.9,7.6,2.6c2,1.8,2.9,4.3,2.9,7.5c0,0.2,0,0.5,0,0.9h-17.2c0.1,2.1,0.9,3.8,2.2,4.9
			c1.3,1.1,2.9,1.7,4.8,1.7c1.4,0,2.7-0.3,3.7-1C202.1,81.8,202.9,80.8,203.5,79.4z M190.7,74.1h12.9c-0.2-1.6-0.7-2.9-1.5-3.7
			c-1.2-1.3-2.9-1.9-4.8-1.9c-1.8,0-3.3,0.5-4.5,1.5C191.5,71.1,190.8,72.4,190.7,74.1z"/>
		<path d="M212.5,93.1V66.3h3.6v2.5c0.8-1,1.8-1.7,2.8-2.2c1.1-0.5,2.3-0.7,3.8-0.7c2,0,3.7,0.4,5.2,1.3c1.5,0.9,2.6,2.1,3.4,3.6
			c0.8,1.6,1.2,3.3,1.2,5.1c0,2-0.4,3.8-1.3,5.4s-2.1,2.8-3.7,3.7c-1.6,0.8-3.3,1.3-5.1,1.3c-1.3,0-2.5-0.2-3.5-0.7s-1.9-1-2.6-1.8
			v9.4H212.5z M216,76.1c0,2.5,0.6,4.3,1.8,5.5c1.2,1.2,2.7,1.8,4.4,1.8c1.7,0,3.2-0.6,4.5-1.9c1.2-1.2,1.9-3.2,1.9-5.7
			c0-2.5-0.6-4.3-1.8-5.6c-1.2-1.2-2.7-1.8-4.3-1.8c-1.7,0-3.1,0.7-4.4,2C216.7,71.7,216,73.6,216,76.1z"/>
		<path d="M253,79.4l4,0.4c-0.6,2-1.8,3.5-3.5,4.6s-3.9,1.6-6.6,1.6c-3.4,0-6.1-0.9-8-2.6c-2-1.7-3-4.2-3-7.4c0-3.3,1-5.8,3-7.6
			c2-1.8,4.6-2.7,7.8-2.7c3.1,0,5.6,0.9,7.6,2.6c2,1.8,2.9,4.3,2.9,7.5c0,0.2,0,0.5,0,0.9H240c0.1,2.1,0.9,3.8,2.2,4.9
			s2.9,1.7,4.8,1.7c1.4,0,2.7-0.3,3.7-1C251.6,81.8,252.4,80.8,253,79.4z M240.2,74.1h12.9c-0.2-1.6-0.7-2.9-1.5-3.7
			c-1.2-1.3-2.9-1.9-4.8-1.9c-1.8,0-3.3,0.5-4.5,1.5C241,71.1,240.3,72.4,240.2,74.1z"/>
		<path d="M261.9,85.7V66.3h3.5v2.9c0.9-1.4,1.7-2.3,2.5-2.7c0.8-0.4,1.6-0.7,2.5-0.7c1.3,0,2.7,0.4,4,1.1l-1.3,3.1
			c-1-0.5-1.9-0.7-2.9-0.7c-0.9,0-1.6,0.2-2.3,0.6c-0.7,0.4-1.2,1-1.5,1.8c-0.4,1.2-0.7,2.4-0.7,3.8v10.2H261.9z"/>
	</g>
</g>
<path d="M39.5,73.6c1.5,0,1.5-2.4,0-2.4C37.9,71.2,37.9,73.6,39.5,73.6z"/>
<path d="M100.3,70.4c1.5,0,1.5-2.4,0-2.4S98.8,70.4,100.3,70.4z"/>
<path d="M122.5,77.7c1.5,0,1.5-2.4,0-2.4S121,77.7,122.5,77.7z"/>
<path d="M87.7,66.2c1.5,0,1.5-2.4,0-2.4S86.2,66.2,87.7,66.2z"/>
<path class="st3" d="M100.3,68.5l-25.4-0.1l-5.7-5.6H48.5l-8.9,8.5l1,1.1l8.6-8.2h19.4l5.6,5.4l0.3,0.3h25.8V68.5z"/>
<polygon class="st3" points="88.9,64.3 102.5,64.3 111.2,73.1 120.1,73.1 122.9,75.6 122,76.8 119.6,74.4 110.9,74.6 101.9,65.7 
	88.5,65.9 "/>
<linearGradient id="SVGID_1_" gradientUnits="userSpaceOnUse" x1="371.7076" y1="108.8287" x2="388.9316" y2="123.1207" gradientTransform="matrix(-0.9829 0.1841 -0.1841 -0.9829 489.9224 119.2942)">
	<stop  offset="0.76" style="stop-color:#F71B0D"/>
	<stop  offset="1" style="stop-color:#FFFFFF"/>
</linearGradient>
<path class="st4" d="M94.9,90.2c-8.2,0-14.8-6.6-14.8-14.8s6.6-14.8,14.8-14.8s14.8,6.6,14.8,14.8S103.1,90.2,94.9,90.2"/>
<path d="M11.2,8.2c0.1,3.6,0.1,7.1,0.2,10.7l0.1,10.7l0.1,10.7L11.7,51c0,7.1,0.1,14.2,0.1,21.3V83v10.7l-0.6-0.6l24.7-0.3l24.7-0.2
	l24.7-0.2L110,92l24.7-0.2l24.7-0.1l24.7-0.1h12.3h12.3l-12.3,0.2L184,91.9l-24.7,0.4l-24.7,0.4L110,93l-24.7,0.3l-24.7,0.3
	l-24.7,0.3l-24.7,0.2h-0.6v-0.6V82.8V72.1c0-7.1,0.1-14.2,0.1-21.3l0.1-10.7L11,29.6l0.1-10.7C11.1,15.4,11.2,11.8,11.2,8.2z"/>
<g id="Слой_11">
	<g>
		<rect x="47.7" y="97.7" class="st5" width="218.7" height="9.4"/>
		<rect x="52.3" y="96.7" class="st6" width="188.2" height="9.7"/>
		<g class="st1">
			<path class="st7" d="M56.6,104.2c-0.4,0.2-0.9,0.3-1.4,0.3c-0.7,0-1.3-0.2-1.8-0.6c-0.5-0.4-0.7-0.9-0.7-1.6
				c0-0.7,0.2-1.3,0.7-1.8c0.5-0.4,1.1-0.7,1.9-0.7c0.4,0,0.8,0.1,1.2,0.2v0.7c-0.4-0.2-0.8-0.3-1.2-0.3c-0.5,0-1,0.2-1.3,0.5
				c-0.3,0.3-0.5,0.8-0.5,1.3c0,0.5,0.2,0.9,0.5,1.2c0.3,0.3,0.7,0.5,1.3,0.5c0.5,0,0.9-0.1,1.3-0.4V104.2z"/>
			<path class="st7" d="M62.1,104.4h-0.7v-3.6l-0.3,0.5l-2.4,3.1h-0.8V100h0.7v3.5c0.1-0.1,0.1-0.3,0.3-0.4l2.5-3.1h0.8V104.4z"/>
			<path class="st7" d="M67.3,104.2c-0.4,0.2-0.9,0.3-1.4,0.3c-0.7,0-1.3-0.2-1.8-0.6c-0.5-0.4-0.7-0.9-0.7-1.6
				c0-0.7,0.2-1.3,0.7-1.8c0.5-0.4,1.1-0.7,1.9-0.7c0.4,0,0.8,0.1,1.2,0.2v0.7c-0.4-0.2-0.8-0.3-1.2-0.3c-0.5,0-1,0.2-1.3,0.5
				c-0.3,0.3-0.5,0.8-0.5,1.3c0,0.5,0.2,0.9,0.5,1.2c0.3,0.3,0.7,0.5,1.3,0.5c0.5,0,0.9-0.1,1.3-0.4V104.2z"/>
			<path class="st7" d="M71.7,100.5h-1.6v3.8h-0.8v-3.8h-1.6V100h3.9V100.5z"/>
			<path class="st7" d="M76.8,102.3h-3.6c0,0.5,0.2,0.9,0.5,1.2c0.3,0.3,0.7,0.4,1.2,0.4c0.6,0,1.1-0.2,1.6-0.5v0.6
				c-0.5,0.3-1.1,0.4-1.8,0.4c-0.7,0-1.3-0.2-1.7-0.6c-0.4-0.4-0.6-1-0.6-1.7c0-0.7,0.2-1.2,0.7-1.7c0.4-0.4,1-0.7,1.7-0.7
				s1.2,0.2,1.5,0.6c0.4,0.4,0.5,0.9,0.5,1.6V102.3z M76,101.7c0-0.4-0.1-0.7-0.3-1c-0.2-0.2-0.5-0.3-1-0.3c-0.4,0-0.7,0.1-1,0.4
				c-0.3,0.2-0.5,0.6-0.5,1H76z"/>
			<path class="st7" d="M83.5,104.4h-0.8v-3.7c0,0.1-0.1,0.2-0.1,0.3c-0.1,0.1-0.1,0.3-0.2,0.5l-1.3,2.8h-0.7l-1.3-2.8
				c-0.1-0.1-0.2-0.4-0.3-0.8v3.7H78V100h1l1.4,2.9c0,0.1,0.2,0.4,0.4,0.9l0.4-0.9l1.3-2.9h1V104.4z"/>
			<path class="st7" d="M85.3,100.3c0.5-0.3,1.1-0.4,1.7-0.4c1.2,0,1.8,0.5,1.8,1.6v2.9h-0.8v-0.7h0c-0.4,0.5-0.9,0.8-1.6,0.8
				c-0.5,0-0.9-0.1-1.2-0.3s-0.4-0.5-0.4-0.9c0-0.8,0.6-1.3,1.7-1.4l1.5-0.2c0-0.8-0.4-1.2-1.1-1.2c-0.6,0-1.2,0.2-1.7,0.6V100.3z
				 M86.8,102.3c-0.4,0-0.7,0.1-0.9,0.3c-0.2,0.1-0.3,0.3-0.3,0.6c0,0.2,0.1,0.4,0.3,0.5s0.4,0.2,0.7,0.2c0.4,0,0.8-0.1,1-0.4
				c0.3-0.3,0.4-0.6,0.4-1v-0.4L86.8,102.3z"/>
			<path class="st7" d="M98,100l-2.4,5.2c-0.4,0.9-1,1.4-1.7,1.4c-0.2,0-0.3,0-0.5,0v-0.6c0.2,0,0.3,0.1,0.5,0.1
				c0.4,0,0.7-0.2,0.9-0.6l0.4-0.9l-2-4.4H94l1.4,3.5c0,0,0,0.1,0.1,0.3h0l0.1-0.3l1.5-3.5H98z"/>
			<path class="st7" d="M103.1,104.4h-0.8v-3.8h-2.7v3.8h-0.8V100h4.2V104.4z"/>
			<path class="st7" d="M105.5,103.7v2.7h-0.8V100h0.8v0.8h0c0.4-0.6,1-0.9,1.8-0.9c0.7,0,1.2,0.2,1.5,0.6c0.4,0.4,0.6,0.9,0.6,1.6
				c0,0.7-0.2,1.3-0.6,1.8c-0.4,0.4-1,0.7-1.7,0.7C106.4,104.5,105.9,104.2,105.5,103.7L105.5,103.7z M105.5,102.6
				c0,0.4,0.1,0.7,0.4,0.9s0.6,0.4,1.1,0.4c0.5,0,0.9-0.2,1.2-0.5c0.3-0.3,0.4-0.8,0.4-1.4c0-0.5-0.1-0.9-0.4-1.2
				c-0.3-0.3-0.6-0.4-1.1-0.4c-0.5,0-0.9,0.1-1.2,0.4s-0.5,0.7-0.5,1.1V102.6z"/>
			<path class="st7" d="M110.9,100.3c0.5-0.3,1.1-0.4,1.7-0.4c1.2,0,1.8,0.5,1.8,1.6v2.9h-0.8v-0.7h0c-0.4,0.5-0.9,0.8-1.6,0.8
				c-0.5,0-0.9-0.1-1.2-0.3s-0.4-0.5-0.4-0.9c0-0.8,0.6-1.3,1.7-1.4l1.5-0.2c0-0.8-0.4-1.2-1.1-1.2c-0.6,0-1.2,0.2-1.7,0.6V100.3z
				 M112.4,102.3c-0.4,0-0.7,0.1-0.9,0.3c-0.2,0.1-0.3,0.3-0.3,0.6c0,0.2,0.1,0.4,0.3,0.5s0.4,0.2,0.7,0.2c0.4,0,0.8-0.1,1-0.4
				c0.3-0.3,0.4-0.6,0.4-1v-0.4L112.4,102.3z"/>
			<path class="st7" d="M116,104.4V100h2.2c0.5,0,0.9,0.1,1.2,0.3c0.3,0.2,0.4,0.5,0.4,0.8c0,0.6-0.3,0.9-1,1c0.8,0.1,1.2,0.4,1.2,1
				c0,0.4-0.2,0.7-0.5,0.9c-0.3,0.2-0.7,0.4-1.2,0.4H116z M116.7,100.5v1.3h1.3c0.7,0,1-0.2,1-0.7c0-0.4-0.3-0.6-0.9-0.6H116.7z
				 M116.7,102.4v1.4h1.5c0.7,0,1-0.2,1-0.7c0-0.5-0.4-0.7-1.1-0.7H116.7z"/>
			<path class="st7" d="M125.1,104.4h-0.8v-3.8h-1.2c-0.1,1.4-0.3,2.4-0.7,3c-0.3,0.6-0.8,0.9-1.3,0.9c-0.2,0-0.3,0-0.4-0.1v-0.6
				c0.1,0.1,0.2,0.1,0.4,0.1c0.7,0,1.2-1.3,1.4-3.9h2.6V104.4z"/>
			<path class="st7" d="M130.8,102.3h-3.6c0,0.5,0.2,0.9,0.5,1.2c0.3,0.3,0.7,0.4,1.2,0.4c0.6,0,1.1-0.2,1.6-0.5v0.6
				c-0.5,0.3-1.1,0.4-1.8,0.4c-0.7,0-1.3-0.2-1.7-0.6c-0.4-0.4-0.6-1-0.6-1.7c0-0.7,0.2-1.2,0.7-1.7c0.4-0.4,1-0.7,1.7-0.7
				s1.2,0.2,1.5,0.6c0.4,0.4,0.5,0.9,0.5,1.6V102.3z M130,101.7c0-0.4-0.1-0.7-0.3-1c-0.2-0.2-0.5-0.3-1-0.3c-0.4,0-0.7,0.1-1,0.4
				c-0.3,0.2-0.5,0.6-0.5,1H130z"/>
			<path class="st7" d="M136.3,104.4h-0.8v-2h-2.7v2h-0.8V100h0.8v1.8h2.7V100h0.8V104.4z"/>
			<path class="st7" d="M142.2,104.4h-0.7v-3.6l-0.3,0.5l-2.4,3.1H138V100h0.7v3.5c0.1-0.1,0.1-0.3,0.3-0.4l2.5-3.1h0.8V104.4z"/>
			<path class="st7" d="M147.4,104.4h-0.8v-1.8h-0.7c-0.3,0-0.6,0.2-0.9,0.7l-0.7,1.1h-0.9l0.9-1.4c0.2-0.3,0.4-0.5,0.7-0.6
				c-0.4,0-0.7-0.2-0.9-0.4c-0.2-0.2-0.3-0.5-0.3-0.8c0-0.4,0.2-0.7,0.5-0.9c0.3-0.2,0.8-0.3,1.4-0.3h1.7V104.4z M146.6,102v-1.4h-1
				c-0.7,0-1.1,0.2-1.1,0.7c0,0.5,0.3,0.7,1,0.7H146.6z"/>
			<path class="st7" d="M156,104.2c-0.4,0.2-0.9,0.3-1.4,0.3c-0.7,0-1.3-0.2-1.8-0.6c-0.5-0.4-0.7-0.9-0.7-1.6
				c0-0.7,0.2-1.3,0.7-1.8c0.5-0.4,1.1-0.7,1.9-0.7c0.4,0,0.8,0.1,1.2,0.2v0.7c-0.4-0.2-0.8-0.3-1.2-0.3c-0.5,0-1,0.2-1.3,0.5
				c-0.3,0.3-0.5,0.8-0.5,1.3c0,0.5,0.2,0.9,0.5,1.2c0.3,0.3,0.7,0.5,1.3,0.5c0.5,0,0.9-0.1,1.3-0.4V104.2z"/>
			<path class="st7" d="M161.4,102.3h-3.6c0,0.5,0.2,0.9,0.5,1.2c0.3,0.3,0.7,0.4,1.2,0.4c0.6,0,1.1-0.2,1.6-0.5v0.6
				c-0.5,0.3-1.1,0.4-1.8,0.4c-0.7,0-1.3-0.2-1.7-0.6c-0.4-0.4-0.6-1-0.6-1.7c0-0.7,0.2-1.2,0.7-1.7c0.4-0.4,1-0.7,1.7-0.7
				s1.2,0.2,1.5,0.6c0.4,0.4,0.5,0.9,0.5,1.6V102.3z M160.6,101.7c0-0.4-0.1-0.7-0.3-1c-0.2-0.2-0.5-0.3-1-0.3c-0.4,0-0.7,0.1-1,0.4
				c-0.3,0.2-0.5,0.6-0.5,1H160.6z"/>
			<path class="st7" d="M163.4,103.7v2.7h-0.8V100h0.8v0.8h0c0.4-0.6,1-0.9,1.8-0.9c0.7,0,1.2,0.2,1.5,0.6c0.4,0.4,0.6,0.9,0.6,1.6
				c0,0.7-0.2,1.3-0.6,1.8c-0.4,0.4-1,0.7-1.7,0.7C164.3,104.5,163.8,104.2,163.4,103.7L163.4,103.7z M163.4,102.6
				c0,0.4,0.1,0.7,0.4,0.9s0.6,0.4,1.1,0.4c0.5,0,0.9-0.2,1.2-0.5c0.3-0.3,0.4-0.8,0.4-1.4c0-0.5-0.1-0.9-0.4-1.2
				c-0.3-0.3-0.6-0.4-1.1-0.4c-0.5,0-0.9,0.1-1.2,0.4s-0.5,0.7-0.5,1.1V102.6z"/>
			<path class="st7" d="M168.7,104.4V100h2.2c0.5,0,0.9,0.1,1.2,0.3c0.3,0.2,0.4,0.5,0.4,0.8c0,0.6-0.3,0.9-1,1
				c0.8,0.1,1.2,0.4,1.2,1c0,0.4-0.2,0.7-0.5,0.9c-0.3,0.2-0.7,0.4-1.2,0.4H168.7z M169.4,100.5v1.3h1.3c0.7,0,1-0.2,1-0.7
				c0-0.4-0.3-0.6-0.9-0.6H169.4z M169.4,102.4v1.4h1.5c0.7,0,1-0.2,1-0.7c0-0.5-0.4-0.7-1.1-0.7H169.4z"/>
			<path class="st7" d="M178.3,104.4h-0.7v-3.6l-0.3,0.5l-2.4,3.1h-0.8V100h0.7v3.5c0.1-0.1,0.1-0.3,0.3-0.4l2.5-3.1h0.8V104.4z"/>
			<path class="st7" d="M183.5,104.2c-0.4,0.2-0.9,0.3-1.4,0.3c-0.7,0-1.3-0.2-1.8-0.6c-0.5-0.4-0.7-0.9-0.7-1.6
				c0-0.7,0.2-1.3,0.7-1.8c0.5-0.4,1.1-0.7,1.9-0.7c0.4,0,0.8,0.1,1.2,0.2v0.7c-0.4-0.2-0.8-0.3-1.2-0.3c-0.5,0-1,0.2-1.3,0.5
				c-0.3,0.3-0.5,0.8-0.5,1.3c0,0.5,0.2,0.9,0.5,1.2c0.3,0.3,0.7,0.5,1.3,0.5c0.5,0,0.9-0.1,1.3-0.4V104.2z"/>
			<path class="st7" d="M189,104.4h-0.8v-2h-2.7v2h-0.8V100h0.8v1.8h2.7V100h0.8V104.4z"/>
			<path class="st7" d="M190.6,104.4V100h0.8v1.7h1.4c0.5,0,0.9,0.1,1.2,0.4c0.3,0.2,0.5,0.6,0.5,1s-0.2,0.8-0.5,1
				c-0.3,0.2-0.7,0.4-1.2,0.4H190.6z M191.4,102.3v1.5h1.3c0.7,0,1-0.3,1-0.8c0-0.5-0.3-0.7-1-0.7H191.4z M196.2,104.4h-0.8V100h0.8
				V104.4z"/>
			<path class="st7" d="M203.3,104.4h-0.8v-3.7c0,0.1-0.1,0.2-0.1,0.3c-0.1,0.1-0.1,0.3-0.2,0.5l-1.3,2.8h-0.7l-1.3-2.8
				c-0.1-0.1-0.2-0.4-0.3-0.8v3.7h-0.7V100h1l1.4,2.9c0,0.1,0.2,0.4,0.4,0.9l0.4-0.9l1.3-2.9h1V104.4z"/>
			<path class="st7" d="M213.5,106h-0.7v-1.6h-4.3V100h0.8v3.8h2.7V100h0.8v3.8h0.7V106z"/>
			<path class="st7" d="M218.7,102.3h-3.6c0,0.5,0.2,0.9,0.5,1.2c0.3,0.3,0.7,0.4,1.2,0.4c0.6,0,1.1-0.2,1.6-0.5v0.6
				c-0.5,0.3-1.1,0.4-1.8,0.4c-0.7,0-1.3-0.2-1.7-0.6c-0.4-0.4-0.6-1-0.6-1.7c0-0.7,0.2-1.2,0.7-1.7c0.4-0.4,1-0.7,1.7-0.7
				s1.2,0.2,1.5,0.6c0.4,0.4,0.5,0.9,0.5,1.6V102.3z M217.9,101.7c0-0.4-0.1-0.7-0.3-1c-0.2-0.2-0.6-0.3-1-0.3c-0.4,0-0.7,0.1-1,0.4
				c-0.3,0.2-0.5,0.6-0.5,1H217.9z"/>
			<path class="st7" d="M224.2,104.4h-0.8v-2h-2.7v2H220V100h0.8v1.8h2.7V100h0.8V104.4z"/>
			<path class="st7" d="M229.1,100.5h-1.6v3.8h-0.8v-3.8h-1.6V100h3.9V100.5z"/>
			<path class="st7" d="M230.9,103.7v2.7h-0.8V100h0.8v0.8h0c0.4-0.6,1-0.9,1.8-0.9c0.7,0,1.2,0.2,1.5,0.6c0.4,0.4,0.6,0.9,0.6,1.6
				c0,0.7-0.2,1.3-0.6,1.8s-1,0.7-1.7,0.7C231.8,104.5,231.2,104.2,230.9,103.7L230.9,103.7z M230.9,102.6c0,0.4,0.1,0.7,0.4,0.9
				s0.6,0.4,1.1,0.4c0.5,0,0.9-0.2,1.2-0.5s0.4-0.8,0.4-1.4c0-0.5-0.1-0.9-0.4-1.2c-0.3-0.3-0.6-0.4-1.1-0.4c-0.5,0-0.9,0.1-1.2,0.4
				s-0.5,0.7-0.5,1.1V102.6z"/>
			<path class="st7" d="M235.8,102.2c0-0.7,0.2-1.3,0.7-1.7s1.1-0.6,1.9-0.6c0.7,0,1.3,0.2,1.8,0.6s0.6,1,0.6,1.7
				c0,0.7-0.2,1.3-0.7,1.7c-0.5,0.4-1.1,0.6-1.8,0.6c-0.7,0-1.3-0.2-1.8-0.6C236,103.4,235.8,102.9,235.8,102.2z M236.5,102.2
				c0,0.5,0.2,0.9,0.5,1.3c0.3,0.3,0.7,0.5,1.3,0.5c0.5,0,1-0.2,1.3-0.5c0.3-0.3,0.4-0.7,0.4-1.3c0-0.6-0.1-1-0.4-1.3
				c-0.3-0.3-0.7-0.5-1.3-0.5c-0.5,0-1,0.2-1.3,0.5C236.7,101.2,236.5,101.6,236.5,102.2z"/>
			<path class="st7" d="M247.6,104.4h-0.8v-3.7c0,0.1-0.1,0.2-0.1,0.3c-0.1,0.1-0.1,0.3-0.2,0.5l-1.3,2.8h-0.7l-1.3-2.8
				c-0.1-0.1-0.2-0.4-0.3-0.8v3.7h-0.7V100h1l1.4,2.9c0,0.1,0.2,0.4,0.4,0.9l0.4-0.9l1.3-2.9h1V104.4z"/>
		</g>
	</g>
</g>
</svg>
