<svg id="Слой_1" data-name="Слой 1" xmlns="http://www.w3.org/2000/svg" xmlns:xlink="http://www.w3.org/1999/xlink" 
     viewBox="22 -18 65 65">
    <defs>
        <style>.cls-1,.cls-2,.cls-4,.cls-6{fill:#fff;}.cls-2,.cls-7{stroke:#fff;stroke-miterlimit:10;}.cls-2{stroke-width:0.2px;}.cls-3{opacity:0.83;fill:url(#Безымянный_градиент_2);}.cls-3,.cls-4,.cls-5,.cls-6,.cls-7{isolation:isolate;}.cls-4{font-size:37.41px;font-family:ArialMT, Arial;}.cls-6,.cls-7{font-size:53.54px;font-family:Broadway;}.cls-7{fill:none;stroke-width:0.2px;}</style>
        <linearGradient id="Безымянный_градиент_2" x1="656.03" y1="-73.92" x2="673.25" y2="-88.21" gradientTransform="matrix(-0.98, 0.18, 0.18, 0.98, 733.73, -15.34)" gradientUnits="userSpaceOnUse">
            <stop offset="0.76" stop-color="#f71b0d"/>
            <stop offset="1" stop-color="#fff"/>
        </linearGradient>
    </defs>
    <title>Logo_SK_white</title>
        <g transform=" matrix(0.366, -0.21, 0.22, 0.113, 55, 15)">
	<path d="M 0,70 A 65,70 0 0,0 65,0 5,5 0 0,1 75,0 75,70 0 0,1 0,70Z" fill="white">
            <animateTransform attributeName="transform" type="rotate" from="360 0 0" to="0 0 0" dur="1s" repeatCount="indefinite" />
        </path>
        </g>
	<g transform=" matrix(0.366, 0.21, -0.22, 0.113, 55, 15)">
	<path d="M 0,70 A 65,70 0 0,0 65,0 5,5 0 0,1 75,0 75,70 0 0,1 0,70Z" fill="white">
            <animateTransform attributeName="transform" type="rotate" from="360 0 0" to="0 0 0" dur="0.87s" repeatCount="indefinite" />
        </path>
        </g>
    <path class="cls-3" d="M65.67,42.2A14.77,14.77,0,1,1,80.43,27.43,14.77,14.77,0,0,1,65.67,42.2" transform="translate(-13.07 -12.24)"/>
</svg>