<?xml version="1.0" encoding="iso-8859-1"?>
<!-- Generator: Adobe Illustrator 19.0.0, SVG Export Plug-In . SVG Version: 6.00 Build 0)  -->
<svg xmlns="http://www.w3.org/2000/svg" xmlns:xlink="http://www.w3.org/1999/xlink" version="1.1" id="Layer_1" x="0px" y="0px" viewBox="0 0 512.007 512.007" style="enable-background:new 0 0 512.007 512.007;" xml:space="preserve" width="512px" height="512px">
<g>
	<g>
		<path d="M149.342,469.337h-76.8v-76.8c0,0,9.865,0.026,17.348,0.026c3.507,0,5.538-3.951,3.456-6.767    c-9.139-12.373-29.082-38.699-39.603-52.565c-3.422-4.514-10.189-4.454-13.594,0.077L0.862,385.71    c-2.108,2.816-0.102,6.827,3.413,6.827h17.067V503.47c0,4.71,3.823,8.533,8.533,8.533h119.467c4.71,0,8.533-3.823,8.533-8.533    v-25.6C157.875,473.16,154.052,469.337,149.342,469.337z" fill="#FFFFFF"/>
	</g>
</g>
<g>
	<g>
		<path d="M353.98,471.24l-90.163-135.245c-2.338-3.516-7.817-1.852-7.817,2.364v135.245c0,2.355,1.911,4.267,4.267,4.267h90.163    C353.835,477.87,355.874,474.073,353.98,471.24z" fill="#FFFFFF"/>
	</g>
</g>
<g>
	<g>
		<path d="M503.467,256.003H230.4c-4.71,0-8.533,3.823-8.533,8.533V503.47c0,4.71,3.823,8.533,8.533,8.533h273.067    c4.71,0,8.533-3.823,8.533-8.533V264.537C512,259.826,508.177,256.003,503.467,256.003z M384.393,494.937H243.2    c-2.355,0-4.267-1.911-4.267-4.267V286.732c0-4.181,5.393-5.871,7.774-2.432L387.9,488.238    C389.854,491.071,387.831,494.937,384.393,494.937z" fill="#FFFFFF"/>
	</g>
</g>
<g>
	<g>
		<path d="M507.733,119.479h-17.067V8.537c0-4.71-3.823-8.533-8.533-8.533H362.667c-4.71,0-8.533,3.823-8.533,8.533v25.6    c-0.009,4.71,3.814,8.533,8.525,8.533h76.8v76.8c0,0-9.865-0.026-17.348-0.026c-3.499,0-5.538,3.951-3.456,6.767    c9.139,12.365,29.073,38.69,39.595,52.557c3.43,4.514,10.197,4.463,13.602-0.068l39.296-52.395    C513.254,123.489,511.249,119.479,507.733,119.479z" fill="#FFFFFF"/>
	</g>
</g>
<g>
	<g>
		<path d="M298.667,0.003H8.533C3.814,0.003,0,3.818,0,8.537v256c0,4.719,3.814,8.533,8.533,8.533H153.6    c2.27,0,4.437-0.896,6.033-2.5l82.833-82.833h56.201c4.719,0,8.533-3.814,8.533-8.533V8.537    C307.2,3.818,303.386,0.003,298.667,0.003z" fill="#FFFFFF"/>
	</g>
</g>
<g>
</g>
<g>
</g>
<g>
</g>
<g>
</g>
<g>
</g>
<g>
</g>
<g>
</g>
<g>
</g>
<g>
</g>
<g>
</g>
<g>
</g>
<g>
</g>
<g>
</g>
<g>
</g>
<g>
</g>
</svg>
