<svg height="512pt" viewBox="0 0 512 512" width="512pt" xmlns="http://www.w3.org/2000/svg"><path d="m104.65625 340.082031h-69.871094c-19.179687 0-34.785156 15.605469-34.785156 34.785157v34.628906c0 12.394531 6.460938 23.414062 16.457031 29.585937v57.910157c0 8.285156 6.714844 15 15 15h76.527344c8.285156 0 15-6.714844 15-15v-57.910157c9.992187-6.171875 16.457031-17.195312 16.457031-29.585937v-34.628906c0-19.179688-15.605468-34.785157-34.785156-34.785157zm0 0"/><path d="m120.976562 279.246094c0-28.273438-23-51.273438-51.273437-51.273438-28.269531 0-51.269531 23-51.269531 51.273438 0 28.269531 23 51.269531 51.269531 51.269531 28.273437 0 51.273437-23 51.273437-51.269531zm0 0"/><path d="m299.03125 318.996094h-87.816406c-21.976563 0-39.859375 17.898437-39.859375 39.902344v21.253906c0 14.96875 8.210937 28.191406 20.710937 35.015625l.238282 81.875c.023437 8.269531 6.734374 14.957031 15 14.957031h96.179687c8.195313 0 15.023437-6.851562 15-15.042969l-.238281-81.820312c12.464844-6.835938 20.648437-20.039063 20.648437-34.984375v-21.253906c0-22.003907-17.882812-39.902344-39.863281-39.902344zm0 0"/><path d="m255.105469 299.511719c33.40625 0 60.582031-27.179688 60.582031-60.585938s-27.175781-60.582031-60.582031-60.582031-60.585938 27.175781-60.585938 60.582031 27.179688 60.585938 60.585938 60.585938zm0 0"/><path d="m329.707031 48.234375-39.152343-10.242187-22.34375-31.644532c-2.808594-3.980468-7.378907-6.347656-12.253907-6.347656-4.871093 0-9.441406 2.367188-12.253906 6.347656l-22.34375 31.644532-39.152344 10.242187c-4.984375 1.300781-8.949219 5.070313-10.503906 9.980469-1.558594 4.910156-.484375 10.277344 2.84375 14.210937l24.890625 29.457031-1.699219 37.433594c-.226562 4.976563 2.035157 9.742188 6.03125 12.714844 3.996094 2.976562 9.210938 3.769531 13.910157 2.125l38.277343-13.40625 38.277344 13.40625c4.671875 1.636719 9.9375.832031 13.910156-2.125 4-2.972656 6.257813-7.738281 6.03125-12.714844l-1.699219-37.433594 24.894532-29.457031c3.324218-3.933593 4.398437-9.300781 2.84375-14.210937-1.558594-4.910156-5.523438-8.679688-10.507813-9.980469zm0 0"/><path d="m131.792969 63.140625-30.574219-7.992187-17.421875-24.679688c-2.8125-3.980469-7.378906-6.347656-12.253906-6.347656-4.871094 0-9.441407 2.367187-12.253907 6.347656l-17.421874 24.675781-30.574219 7.996094c-4.984375 1.304687-8.949219 5.070313-10.503907 9.984375-1.558593 4.910156-.484374 10.273438 2.84375 14.207031l19.355469 22.910157-1.320312 29.074218c-.226563 4.976563 2.03125 9.742188 6.03125 12.714844 3.996093 2.976562 9.210937 3.769531 13.910156 2.121094l29.933594-10.480469 29.933593 10.480469c4.664063 1.632812 9.949219.828125 13.914063-2.121094 3.996094-2.972656 6.253906-7.738281 6.027344-12.714844l-1.320313-29.074218 19.359375-22.910157c3.324219-3.933593 4.398438-9.296875 2.84375-14.210937-1.554687-4.90625-5.523437-8.675782-10.507812-9.980469zm0 0"/><path d="m391.988281 110.242188-1.320312 29.074218c-.226563 4.976563 2.03125 9.742188 6.027343 12.714844 4 2.976562 9.214844 3.769531 13.914063 2.125l29.933594-10.484375s29.914062 10.476563 29.933593 10.484375c4.417969 1.546875 9.929688.835938 13.910157-2.125 4-2.972656 6.257812-7.738281 6.03125-12.714844l-1.320313-29.074218 19.355469-22.90625c3.328125-3.9375 4.402344-9.300782 2.84375-14.210938-1.554687-4.910156-5.519531-8.679688-10.503906-9.984375l-30.574219-7.992187-17.425781-24.679688c-2.808594-3.980469-7.378907-6.347656-12.25-6.347656-4.875 0-9.445313 2.367187-12.253907 6.347656l-17.425781 24.679688-30.574219 7.992187c-4.980468 1.304687-8.949218 5.074219-10.503906 9.984375-1.554687 4.910156-.480468 10.273438 2.84375 14.210938zm0 0"/><path d="m477.214844 340.082031h-69.875c-19.179688 0-34.78125 15.605469-34.78125 34.785157v34.628906c0 12.390625 6.460937 23.414062 16.453125 29.585937v57.910157c0 8.285156 6.71875 15 15 15h76.53125c8.28125 0 15-6.714844 15-15v-57.910157c9.992187-6.171875 16.453125-17.191406 16.453125-29.585937v-34.628906c0-19.179688-15.601563-34.785157-34.78125-34.785157zm0 0"/><path d="m442.261719 227.972656c-28.269531 0-51.269531 23-51.269531 51.273438 0 28.269531 23 51.269531 51.269531 51.269531 28.273437 0 51.269531-23 51.269531-51.269531 0-28.273438-23-51.273438-51.269531-51.273438zm0 0"/></svg>