<svg height="512pt" viewBox="0 0 512 512" width="512pt" xmlns="http://www.w3.org/2000/svg"><path d="m448.800781 0h-128.535156c-34.90625 0-63.199219 28.242188-63.199219 63.199219v91.402343l-45.199218 60.265626c-3.410157 4.542968-3.957032 10.625-1.417969 15.707031 2.542969 5.082031 7.734375 8.292969 13.417969 8.292969h224.933593c34.847657 0 63.199219-28.351563 63.199219-63.199219v-112.46875c0-34.847657-28.351562-63.199219-63.199219-63.199219zm-64.269531 190.667969c-8.277344 0-15-6.722657-15-15 0-8.28125 6.722656-15 15-15 8.28125 0 15 6.71875 15 15 0 8.277343-6.71875 15-15 15zm0-48.199219c-8.28125 0-15-6.71875-15-15 0-8.285156 6.71875-15 15-15 9.449219 0 17.132812-7.6875 17.132812-17.132812 0-4.578126-1.777343-8.875-5.011718-12.105469-3.246094-3.25-7.542969-5.03125-12.121094-5.03125-9.453125 0-17.132812 7.679687-17.132812 17.117187 0 8.285156-6.714844 15.007813-15 15.007813-8.28125 0-15-6.707031-15-14.988281v-.019532c0-25.976562 21.136718-47.117187 47.117187-47.117187 12.617187 0 24.453125 4.910156 33.347656 13.816406 8.898438 8.882813 13.800781 20.722656 13.800781 33.320313.003907 25.988281-21.140624 47.132812-47.132812 47.132812zm0 0"/><path d="m288.132812 273.132812h-224.933593c-34.847657 0-63.199219 28.351563-63.199219 63.199219v112.46875c0 34.847657 28.351562 63.199219 63.199219 63.199219h128.535156c34.90625 0 63.199219-28.242188 63.199219-63.199219v-91.402343l45.199218-60.265626c3.410157-4.542968 3.957032-10.625 1.417969-15.707031-2.542969-5.082031-7.734375-8.292969-13.417969-8.292969zm-160.664062 166.566407h-48.203125c-8.28125 0-15-6.714844-15-15 0-8.285157 6.71875-15 15-15h48.203125c8.28125 0 15 6.714843 15 15 0 8.285156-6.71875 15-15 15zm48.199219-64.265625h-96.402344c-8.28125 0-15-6.714844-15-15s6.71875-15 15-15h96.402344c8.28125 0 15 6.714844 15 15s-6.71875 15-15 15zm0 0"/><path d="m15.003906 238.867188h160.660156c8.285157 0 15-6.714844 15-15v-20.9375c0-52.621094-42.632812-95.285157-95.238281-95.332032 29.671875-.046875 53.710938-24.113281 53.710938-53.796875 0-29.710937-24.085938-53.800781-53.800781-53.800781-29.714844 0-53.800782 24.089844-53.800782 53.800781 0 29.683594 24.039063 53.75 53.710938 53.796875-52.609375.046875-95.24218775 42.710938-95.24218775 95.332032v20.9375c0 8.285156 6.71484375 15 14.99999975 15zm0 0"/><path d="m416.757812 380.730469c29.671876-.046875 53.710938-24.113281 53.710938-53.796875 0-29.714844-24.085938-53.800782-53.796875-53.800782-29.714844 0-53.800781 24.085938-53.800781 53.800782 0 29.683594 24.039062 53.75 53.710937 53.796875-52.609375.046875-95.246093 42.707031-95.246093 95.328125v20.941406c0 8.285156 6.71875 15 15 15h160.664062c8.285156 0 15-6.714844 15-15v-20.9375c0-52.621094-42.632812-95.285156-95.242188-95.332031zm0 0"/></svg>