<?xml version="1.0" encoding="iso-8859-1"?>
<!-- Generator: Adobe Illustrator 19.0.0, SVG Export Plug-In . SVG Version: 6.00 Build 0)  -->
<svg version="1.1" id="Layer_1" xmlns="http://www.w3.org/2000/svg" xmlns:xlink="http://www.w3.org/1999/xlink" x="0px" y="0px"
	 viewBox="0 0 491.501 491.501" style="enable-background:new 0 0 491.501 491.501;" xml:space="preserve">
<g>
	<g>
		<path d="M471.1,389.1h-61.4V20.5c0-11.3-9.2-20.5-20.5-20.5H102.4C91.1,0,81.9,9.2,81.9,20.5v368.6H20.5
			C9.2,389.1,0,398.3,0,409.6V471c0,11.3,9.2,20.5,20.5,20.5h81.9h286.7H471c11.3,0,20.5-9.2,20.5-20.5v-61.4
			C491.6,398.2,482.4,389.1,471.1,389.1z M82,450.5H41V430h41V450.5z M327.8,307.2h-0.1c0,11.3-9.2,20.5-20.5,20.5
			s-20.5-9.2-20.5-20.5v-20.5h-20.5c-11.3,0-20.5-9.2-20.5-20.5s9.2-20.5,20.5-20.5h20.6v-20.5c0-11.3,9.2-20.5,20.5-20.5
			s20.5,9.2,20.5,20.5V307.2z M450.6,450.5h-41V430h41V450.5z"/>
	</g>
</g>
<g>
</g>
<g>
</g>
<g>
</g>
<g>
</g>
<g>
</g>
<g>
</g>
<g>
</g>
<g>
</g>
<g>
</g>
<g>
</g>
<g>
</g>
<g>
</g>
<g>
</g>
<g>
</g>
<g>
</g>
</svg>
