<?xml version="1.0" encoding="iso-8859-1"?>
<!-- Generator: Adobe Illustrator 19.0.0, SVG Export Plug-In . SVG Version: 6.00 Build 0)  -->
<svg xmlns="http://www.w3.org/2000/svg" xmlns:xlink="http://www.w3.org/1999/xlink" version="1.1" id="Capa_1" x="0px" y="0px" viewBox="0 0 430 430" style="enable-background:new 0 0 430 430;" xml:space="preserve" width="512px" height="512px">
<g id="XMLID_1_">
	<path id="XMLID_906_" d="M230,15v400h200V15H230z M255,135c0-33.084,26.916-60,60-60s60,26.916,60,60s-26.916,60-60,60   S255,168.084,255,135z M290,225v60h-30v-60H290z" fill="#800000"/>
	<path id="XMLID_910_" d="M200,15H0v400h200V15z M115,195c-33.084,0-60-26.916-60-60s26.916-60,60-60s60,26.916,60,60   S148.084,195,115,195z M170,225v60h-30v-60H170z" fill="#800000"/>
</g>
<g>
</g>
<g>
</g>
<g>
</g>
<g>
</g>
<g>
</g>
<g>
</g>
<g>
</g>
<g>
</g>
<g>
</g>
<g>
</g>
<g>
</g>
<g>
</g>
<g>
</g>
<g>
</g>
<g>
</g>
</svg>
