<svg height="594pt" viewBox="-30 -18 594 594.66461" width="594pt" xmlns="http://www.w3.org/2000/svg"><path d="m266.3125 137.875c-49.636719.058594-89.867188 40.28125-89.917969 89.917969 0 38.859375 58.945313 129.425781 89.917969 172.847656 30.972656-43.421875 89.917969-134 89.917969-172.847656-.050781-49.636719-40.28125-89.859375-89.917969-89.917969zm0 149.863281c-33.109375 0-59.945312-26.835937-59.945312-59.945312 0-33.105469 26.835937-59.945313 59.945312-59.945313 33.105469 0 59.945312 26.839844 59.945312 59.945313-.035156 33.097656-26.855468 59.917969-59.945312 59.945312zm0 0"/><path d="m306.277344 227.792969c0 22.074219-17.894532 39.964843-39.964844 39.964843-22.074219 0-39.964844-17.890624-39.964844-39.964843 0-22.070313 17.890625-39.964844 39.964844-39.964844 22.070312 0 39.964844 17.894531 39.964844 39.964844zm0 0"/><path d="m266.3125 0-266.761719 177.839844h56.949219c5.519531 0 9.992188 4.472656 9.992188 9.988281v359.679687c0 5.515626 4.472656 9.992188 9.992187 9.992188h379.65625c5.519531 0 9.992187-4.476562 9.992187-9.992188v-359.679687c0-5.515625 4.472657-9.988281 9.992188-9.988281h56.945312zm-29.972656 457.585938h-19.984375v-19.980469h19.984375zm49.953125 0h-39.960938v-19.980469h39.960938zm29.976562 0h-19.984375v-19.980469h19.984375zm-41.964843-33.96875c-1.882813 2.542968-4.859376 4.042968-8.023438 4.042968s-6.140625-1.5-8.023438-4.042968c-4.136718-5.640626-101.847656-138.015626-101.847656-195.824219 0-60.691407 49.203125-109.902344 109.902344-109.902344s109.902344 49.210937 109.902344 109.902344c0 57.808593-97.714844 190.183593-101.910156 195.824219zm0 0"/></svg>