<svg xmlns="http://www.w3.org/2000/svg" xmlns:xlink="http://www.w3.org/1999/xlink" viewBox="0 0 598.96 195.45"><defs><style>.cls-1,.cls-4,.cls-5{stroke:#000;}.cls-1,.cls-4,.cls-5,.cls-6{stroke-miterlimit:10;}.cls-1,.cls-5,.cls-6{stroke-width:0.22px;}.cls-2,.cls-7{opacity:0.83;}.cls-3{fill:#fff;}.cls-4{stroke-width:0.22px;}.cls-5{fill:url(#Безымянный_градиент_2);}.cls-6{stroke:#fff;fill:url(#Безымянный_градиент_16);}.cls-7{fill:url(#Безымянный_градиент_33);}</style><linearGradient id="Безымянный_градиент_2" x1="6.42" y1="142.51" x2="119.81" y2="142.51" gradientUnits="userSpaceOnUse"><stop offset="0" stop-color="#fff"/><stop offset="0"/></linearGradient><linearGradient id="Безымянный_градиент_16" x1="115.98" y1="53.38" x2="142.02" y2="119.15" gradientUnits="userSpaceOnUse"><stop offset="0" stop-color="#7c7c7c"/><stop offset="0.75" stop-color="#0e0e0e"/></linearGradient><linearGradient id="Безымянный_градиент_33" x1="-1197.46" y1="242.7" x2="-1178.7" y2="258.26" gradientTransform="translate(-834.31 556.01) rotate(169.39)" gradientUnits="userSpaceOnUse"><stop offset="0.76" stop-color="#ff1e00"/><stop offset="1" stop-color="#fff"/></linearGradient></defs><title>Ресурс 1</title><g id="Слой_2" data-name="Слой 2"><g id="Лого"><path id="Дорожки" d="M164.33,156a1.26,1.26,0,0,1,.77.24v.29h-1.51v-.3A1.23,1.23,0,0,1,164.33,156Zm22.21-53.91V102l-1.5,0v.15a1.36,1.36,0,0,0,1.5-.1Zm-5.27,0V102l-1.45,0v.21a1.29,1.29,0,0,0,.68.17A1.26,1.26,0,0,0,181.27,102.17ZM181,128a1.31,1.31,0,0,0-.69.19l1.5.09A1.22,1.22,0,0,0,181,128Zm-29.91,41.65v.24h1.55v-.23a1.21,1.21,0,0,0-.78-.25A1.26,1.26,0,0,0,151.07,169.64Zm40.17-67.47V102l-1.55.08v.14a1.27,1.27,0,0,0,.78.24A1.24,1.24,0,0,0,191.24,102.17Zm4.94,0v-.26l-1.45.12v.21a1.4,1.4,0,0,0,1.45-.07Zm-1.87,64.92-.21-.2a1.22,1.22,0,0,0-1.11,1.17l.12.13Zm24.58-3h-.13a1.45,1.45,0,0,0,0,1.55h.1Zm-1.13-25.19.18.16.82-1.33-.08-.07A1.25,1.25,0,0,0,217.76,138.93Zm-11.32-36.86v-.16l-1.55.12v0a1.33,1.33,0,0,0,1.55,0Zm-36,.22-.88-.8A1.18,1.18,0,0,0,170.44,102.29Zm6-.13v-.37l-1.68.33v.15a1.22,1.22,0,0,0,.77.24A1.23,1.23,0,0,0,176.46,102.16Zm-24.4,16.44-.08.07,1.06,1.06.05-.06A1.2,1.2,0,0,0,152.06,118.6Zm49.53-16.33v-.16l-1.44,0v.19a1.32,1.32,0,0,0,.68.18A1.24,1.24,0,0,0,201.59,102.27Zm10.91,54.79-.1-.11a1.24,1.24,0,0,0-.93,1.17l0,0Zm80.85-73.47H292.3a1.45,1.45,0,0,0,0,1.49h1C293.34,84.58,293.35,84.09,293.35,83.59Zm-71.57,16.93h-.23a1.44,1.44,0,0,0-.27,1.22h.21Zm5.55-14-.16.15,1.07,1.14.14-.14A1.21,1.21,0,0,0,227.33,86.53Zm-6.4,35.16-.19-.17a1.24,1.24,0,0,0-1,1.27l.17.16Zm-4.23-21.32h-.13l.13,1.42h0A1.47,1.47,0,0,0,216.7,100.37Zm-5.14,1.9v0l-1.38-.07v.19a1.17,1.17,0,0,0,.61.15A1.22,1.22,0,0,0,211.56,102.27Zm-17,65c-3-3-6.51-6.47-9.54-9.52V136.29l6.39-6.24c0-9.29-.1-19-.15-28.26-.2.15-.37,0-.69,0s-.66.15-.86,0l.29,28-6.39,6.34v22.12c3.13,3.28,6.5,6.86,9.64,10.14A14,14,0,0,1,194.54,167.26Zm25.26-3.67a1.18,1.18,0,0,0-1,.53h.13l0,1.55h-.1a1.19,1.19,0,0,0,1,.54A1.31,1.31,0,0,0,219.8,163.59ZM191.24,102v.22a1.31,1.31,0,1,0-1.55,0V102Zm28.06,62.11c-5.22-.06-11-.07-16.2-.13l-2.86-3-.14-28-3.58-3.53c-.12-9.1-.23-18.7-.34-27.8-.2.16-.46-.3-.78-.3s-.49.53-.67.42l.24,28.07,3.68,3.43v28.17l3.84,3.84c5.42.13,11.34.33,16.76.46A1.75,1.75,0,0,1,219.3,164.06Zm-23.12-62.15v.26a1.31,1.31,0,1,0-1.45.07V102A1.13,1.13,0,0,1,196.18,101.91Zm-1.94,65h-.14l.21.2-1.2,1.1-.12-.13a1.24,1.24,0,0,0,1.25,1.44A1.31,1.31,0,0,0,194.24,166.88Zm-13-64.87v.16a1.31,1.31,0,1,0-1.45.07V102Zm5.27.12h0a1.31,1.31,0,1,0-1.5.1s.21.15.21.1C185.78,102.66,186.08,102.47,186.54,102.13Zm-5.27-.22c-.2.16-.52.06-.84.06s-.49.12-.68,0c0,2.48.07,5.24.1,7.72l-9.39,9.4V129.5l-2.85,2.61h-3.1l-3.78,3.73V146.1l2.76,3c0,2.4,0,5.17,0,7.56.2-.13.38.13.68.13s.73-.22.93-.08c-.08-2.5-.26-5.41-.34-7.92l-2.74-3.32.07-9.1L165,133.5h3.22l3.72-3.32c0-3.55,0-7.1,0-10.65l9.25-9.54C181.21,107.39,181.27,104.51,181.27,101.91Zm35.3-1.54h.13a1.21,1.21,0,0,0-1.07-.57,1.31,1.31,0,0,0,0,2.61,1.17,1.17,0,0,0,1.1-.63h0ZM293.35,83a1.17,1.17,0,0,0-1.05.56h1.05c0,.5,0,1,0,1.49h-1a1.19,1.19,0,0,0,1.06.56A1.31,1.31,0,0,0,293.35,83Zm.34.56-28-.06-6.24-6.1H236.9c-3.19,3-6.91,6.51-10.1,9.54a1.46,1.46,0,0,1,1.26,1.17c3.07-3,6.47-6.34,9.54-9.29h21.13l6.15,5.89.34.29,28.47,0A1.47,1.47,0,0,1,293.69,83.59Zm23.88,7.35h-.1L315,88.6h-9.73L295.7,79H280.55l.29.22a1.18,1.18,0,0,0-1.17-.81,1.31,1.31,0,0,0,0,2.62,1.23,1.23,0,0,0,.89-.35l-.17.06,14.72-.24,9.73,9.68,9.54-.15L316.33,92a1.28,1.28,0,0,0,1.24,1.59A1.31,1.31,0,0,0,317.57,90.94ZM155.86,130.15l6.73-.19,2.42-3.52,0-8.13,11.45-11.39,0-5.13c-.4,0-.4.16-.79.16a1.34,1.34,0,0,0-.89.17l0,4.57L163.47,118q0,4,0,8l-1.78,2.71-6.64.12-3.78,3.7c-.06,12.37-.13,25.17-.19,37.55.2-.16.46.1.77.1s.58-.26.78-.1c0-12.23.09-24.88.14-37.12Zm71.31-43.47.16-.15h-.2a1.31,1.31,0,0,0,0,2.61,1.25,1.25,0,0,0,1.25-1.45l-.14.14Zm-4.66,13.41a1.18,1.18,0,0,0-1,.43h.23l-.29,1.22h-.21a1.21,1.21,0,0,0,1.23,1A1.31,1.31,0,0,0,222.51,100.09Zm-1.45,21.39a1.55,1.55,0,0,0-.32,0l.19.17L220,123l-.17-.16a1.24,1.24,0,0,0,1.27,1.31A1.31,1.31,0,0,0,221.06,121.48Zm.27.55c-3.15-2.92-6.9-6.36-10.05-9.28.09-3.49.19-7.23.28-10.72-.19.15-.45,0-.77,0a1.3,1.3,0,0,1-.61-.08c-.1,3.56-.2,7.55-.31,11.11,3.31,3.24,6.89,6.75,10.19,10C220.88,123.09,221.67,122.88,221.33,122Zm.67-21.51-5.54-.15c-.52.56-.42,1.1-.05,1.41,1.52,0,3.86,0,5.37,0C222.66,101.4,222.67,100.88,222,100.52Zm-10.44,1.72v0a1.31,1.31,0,1,0-1.38.09v-.19Zm11-77.56a1.25,1.25,0,0,0-1.25,1.43l-2.93,3.24-2.64,2.32-.24,0a1.31,1.31,0,0,0,0,2.62,1.26,1.26,0,0,0,1.24-1.52L219.29,30l3-2.76a1.27,1.27,0,0,0,.28,0A1.31,1.31,0,0,0,222.6,24.68Zm-42.31,103.5,1.5.09A1.22,1.22,0,0,0,181,128,1.31,1.31,0,0,0,180.29,128.18ZM182,118.3l4.27-4.71c.08-3.85.16-7.71.23-11.56a1.23,1.23,0,0,1-.82.28,1.32,1.32,0,0,1-.68-.18l-.19,11.17-4.35,4.55c-.11,3.41-.22,7.22-.33,10.63,0,0,.2-.21.24-.21.19-.12.35,0,.63,0s.23,0,.44.2c0,0,.41.11.46.11C182,125.25,182,121.59,182,118.3ZM181,130.61a1.31,1.31,0,1,0-.69-2.43A1.33,1.33,0,0,0,181,130.61Zm3.87-120.14V24.25l-.09,7.92a1.31,1.31,0,1,0,1.67-.06c-.06-2.6-.12-5.21-.17-7.81q0-6.94,0-13.9a1.31,1.31,0,1,0-1.45.07Zm15.59,23.8a1.33,1.33,0,0,0,.77-2.37h0c.07-3.78.13-7.55.2-11.33l4.39-4.68L206,6.14a1.31,1.31,0,1,0-1.54,0l.09,9.3L200,20.23c-.08,3.88-.17,7.76-.25,11.65A1.33,1.33,0,0,0,200.44,34.27Zm1.15,67.84v.16a1.31,1.31,0,1,0-1.45.06v-.19Zm11.08,55c-.86-.83-2-1.87-2.84-2.71q0-11-.05-22.07L201.26,124c.11-7.22.22-14.78.33-22-.19.14-.41,0-.72,0s-.54.19-.73.08c-.06,7.37-.12,15-.19,22.41l8.38,8.22V155c1,1,2.32,2.33,3.37,3.36A3.76,3.76,0,0,1,212.67,157.15Zm-17.84-151h0l0,7.51q0,7.24.05,14.49l0,3.73a1.31,1.31,0,1,0,1.55,0l-.09-4.35-.18-21.33a1.31,1.31,0,1,0-1.4-.09Zm-5,18.53,0,7.29a1.31,1.31,0,1,0,1.58.08l-.21-8.29V15.54c0-3.5,0-7,.05-10.49a1.31,1.31,0,1,0-1.39,0V24.68Zm22.89,134.85a1.31,1.31,0,0,0,0-2.62,1.66,1.66,0,0,0-.33,0l.1.11-1,1.1,0,0A1.25,1.25,0,0,0,212.73,159.53ZM204.89,31.9a1.31,1.31,0,1,0,1.57,0l-.31-7.64,9.73-9.22v-.34l0-10.35,2.49-2a1.21,1.21,0,0,0,.78.25,1.31,1.31,0,0,0,0-2.61,1.22,1.22,0,0,0-1.25,1.11l-3.4,2.81v10.7l-9.58,9.29ZM221.18,9.06l0,6.36-11,11.15L210,32a1.31,1.31,0,1,0,1.72.06l-.29-5.19,11.14-11.13.12-6.72a1.31,1.31,0,1,0-1.5,0Zm-3.24,130-.18-.16a1.24,1.24,0,0,0,1.26,1.33,1.31,1.31,0,0,0,0-2.61,1.86,1.86,0,0,0-.34,0l.08.07Zm-11.31-22.93c-.06-4.7-.13-9.73-.19-14.42-.2.15-.46,0-.77,0s-.58.2-.78.05l.24,15,9.34,9.48v9.49c1.1,1,2.6,2.51,3.69,3.55.89.25,1.3-.3.86-1.41-.91-.78-2.15-1.82-3.06-2.61,0-3.21,0-6.43,0-9.65Zm-.19-14.25v.16a1.31,1.31,0,1,0-1.55,0v0Zm-35.7-2.21a1.29,1.29,0,0,0-1.18,1.79l.88.8a1.39,1.39,0,0,0,.3,0A1.31,1.31,0,0,0,170.74,99.7ZM127.16,7.45h.22q8.79,8.83,17.59,17.68h12.78l2.32,2.61v2.91l4.07,3.29h5.32a1.19,1.19,0,0,0,1,.43,1.31,1.31,0,0,0,0-2.61,1.21,1.21,0,0,0-1,.5l-4.74.08-3-2.47V27.35l-3.29-3.78-12.84-.13-17.09-17a1.26,1.26,0,0,0-1.24-1.55A1.31,1.31,0,0,0,127.16,7.45Zm-1.5,17.77,2.85,2.61.15,6.1,3.48,3.43,8.38,0,10.74,11.17,5.25.16a1.2,1.2,0,0,0,1,.53,1.31,1.31,0,0,0,0-2.61,1.19,1.19,0,0,0-1.07.59l-4.41-.09L141,35.82h-8.47l-2.18-2.35-.24-6.08-3.82-4-37.1-.1a1.2,1.2,0,0,0-1-.53,1.31,1.31,0,0,0,0,2.61,1.2,1.2,0,0,0,1.08-.59ZM128.8,44,139,44l9.6,9.63h8a1.19,1.19,0,0,0,1,.47,1.31,1.31,0,0,0,0-2.61,1.2,1.2,0,0,0-1.06.56l-7.13.07-9.91-9.63-9.94,0-2.64-2.8V37.27L123,33.06h-10L110,35.72l-7.54.2a1.2,1.2,0,0,0-1.08-.59,1.31,1.31,0,0,0,0,2.62,1.18,1.18,0,0,0,1.1-.64l8.32-.32,2.65-2.45,9.1-.06,2.8,3V40Zm28.85,15.3a1.31,1.31,0,0,0,0-2.62,1.18,1.18,0,0,0-1.09.63L145,57.1l-4.39-4.49h-9.84a1.18,1.18,0,0,0-1.09-.63,1.31,1.31,0,0,0,0,2.62,1.21,1.21,0,0,0,1-.47l9.4-.07,4.47,4.4,12,.28A1.19,1.19,0,0,0,157.65,59.34Zm18.81,42.45v.37a1.31,1.31,0,1,0-1.67.11v-.15A6.59,6.59,0,0,0,176.46,101.79Zm-25.39,68.09v-.24a1.31,1.31,0,1,0,1.55,0v.23Zm6.58-125.64a1.31,1.31,0,0,0,0-2.62h-.11l-7.34-7.22q-5-5-10-10.09A1.25,1.25,0,0,0,139,22.94a1.31,1.31,0,0,0,0,2.62,1.65,1.65,0,0,0,.32,0L149.23,35l7.22,7.54A1.28,1.28,0,0,0,157.65,44.24Zm17.11-22.47c.05,3.41.09,6.81.14,10.21a1.31,1.31,0,1,0,1.5,0c-.07-3.4-.15-6.81-.23-10.21a1.31,1.31,0,1,0-1.41,0ZM152,118.67l.08-.07-.22,0a1.31,1.31,0,0,0,0,2.61,1.26,1.26,0,0,0,1.25-1.52l-.05.06ZM179.82,17.88v14a1.31,1.31,0,1,0,1.54,0q-.13-7-.26-14h0a1.31,1.31,0,1,0-1.24,0ZM169.56,101s-.07.44-.1.41l-9.1,9.32L151.67,119a4.55,4.55,0,0,1,1.24.92c2.66-2.73,5.5-5.68,8.15-8.41l9.47-9.12s.53-.33.08-.33A1.77,1.77,0,0,1,169.56,101Zm-6,54.92v-.31a1.31,1.31,0,1,0,1.51,0v.3Z"/><path id="Чип" class="cls-1" d="M218.32,37.77H167.21l-3.74,3.48V92.36l3.74,3.49h51.24l3.36-3.36V41.38C220.64,40.18,219.48,39,218.32,37.77ZM217,92.62H168.89L167,90.94V42.54l1.78-1.4,47.78-.08,1.94,1.48q.06,24.21.13,48.4Z"/><g id="Кружок"><path d="M214.11,48A3.43,3.43,0,0,0,213,45.44a3.5,3.5,0,0,0-2.52-.89,3.42,3.42,0,0,0,0,6.83,3.5,3.5,0,0,0,2.52-.89A3.43,3.43,0,0,0,214.11,48Zm0,0a3.85,3.85,0,0,1-6.46,2.84,3.86,3.86,0,0,1,0-5.67A3.85,3.85,0,0,1,214.11,48Z"/></g><path id="Уголок" d="M.74,37c0-.06.09,8.82.1,9.83C.9,60,2.18,98.08,6.3,190.15l233.61.47-14.95.43-15,.39-29.89.71-29.9.7-29.89.61-29.9.55-29.89.51-29.9.49-29.89.43H0v-1.13l0-19.66L.07,155q0-19.66.13-39.31L.29,96,.41,76.38.55,56.73Q.64,46.88.74,37Z"/><rect id="Фон_текста" data-name="Фон текста" class="cls-2" x="229.9" y="116.95" width="369.05" height="19.03"/><path class="cls-3" d="M242.71,130.62a4.69,4.69,0,0,1-2.42.62,4.17,4.17,0,0,1-2.15-.55,3.8,3.8,0,0,1-1.48-1.59,5.07,5.07,0,0,1-.52-2.34,5.48,5.48,0,0,1,.57-2.51,4.21,4.21,0,0,1,1.61-1.73,4.62,4.62,0,0,1,2.38-.62,4.89,4.89,0,0,1,2,.43v1.11a3.87,3.87,0,0,0-2.11-.64,3.25,3.25,0,0,0-1.78.5,3.19,3.19,0,0,0-1.19,1.37,4.44,4.44,0,0,0-.43,2,4,4,0,0,0,.86,2.67,2.91,2.91,0,0,0,2.31,1,3.91,3.91,0,0,0,2.32-.74Z"/><path class="cls-3" d="M251.08,131V123.7l-.25.38L245.78,131h-.92v-8.91h1v7.25a3.71,3.71,0,0,1,.31-.53l5-6.72h1V131Z"/><path class="cls-3" d="M260.91,130.62a4.65,4.65,0,0,1-2.41.62,4.21,4.21,0,0,1-2.16-.55,3.77,3.77,0,0,1-1.47-1.59,5.07,5.07,0,0,1-.53-2.34,5.48,5.48,0,0,1,.57-2.51,4.23,4.23,0,0,1,1.62-1.73,4.55,4.55,0,0,1,2.37-.62,4.94,4.94,0,0,1,2,.43v1.11a3.92,3.92,0,0,0-2.12-.64,3.21,3.21,0,0,0-1.77.5,3.15,3.15,0,0,0-1.2,1.37,4.57,4.57,0,0,0-.42,2,4,4,0,0,0,.86,2.67,2.87,2.87,0,0,0,2.3,1,3.89,3.89,0,0,0,2.32-.74Z"/><path class="cls-3" d="M265.61,123v8h-1.05v-8h-2.69v-.91h6.43V123Z"/><path class="cls-3" d="M270.42,126.72a4,4,0,0,0,.82,2.65,2.84,2.84,0,0,0,2.28,1,4.6,4.6,0,0,0,2.88-1.07v1a5.17,5.17,0,0,1-3.12.94,3.55,3.55,0,0,1-2.89-1.26,5.14,5.14,0,0,1-1.06-3.43,5.36,5.36,0,0,1,.52-2.38,4.12,4.12,0,0,1,1.47-1.67,3.74,3.74,0,0,1,2.07-.6A3.21,3.21,0,0,1,276,123a4.9,4.9,0,0,1,.93,3.18v.5Zm5.45-.91a3.56,3.56,0,0,0-.68-2.22,2.25,2.25,0,0,0-1.82-.79,2.57,2.57,0,0,0-2,.81,3.76,3.76,0,0,0-1,2.2Z"/><path class="cls-3" d="M287.1,131v-7.56c-.08.24-.19.56-.35,1s-1.05,2.61-2.68,6.6h-.77l-2.58-5.93c-.11-.23-.23-.55-.38-.94s-.23-.63-.24-.69V131h-.94v-8.91h1.3l2.59,6c.24.61.41,1.07.53,1.38l.11.31.1-.27,3-7.46h1.36V131Z"/><path class="cls-3" d="M296.25,131v-1.63h0a3.38,3.38,0,0,1-1.2,1.36,3.19,3.19,0,0,1-1.75.49,2.89,2.89,0,0,1-2-.7,2.36,2.36,0,0,1-.76-1.84c0-1.61,1-2.56,3.05-2.85l2.74-.4c0-1.76-.69-2.65-2.05-2.65a4.48,4.48,0,0,0-2.91,1.16v-1.15a5.54,5.54,0,0,1,3-.91,2.88,2.88,0,0,1,2.24.84,3.58,3.58,0,0,1,.76,2.49V131Zm-4.72-2.38a1.62,1.62,0,0,0,.52,1.23,2,2,0,0,0,1.38.47,2.61,2.61,0,0,0,2-.87,3.17,3.17,0,0,0,.81-2.25v-.88l-2.35.33a3.7,3.7,0,0,0-1.85.64A1.68,1.68,0,0,0,291.53,128.64Z"/><path class="cls-3" d="M304.61,135.21a2.32,2.32,0,0,1-.78-.12v-1a2.38,2.38,0,0,0,.78.14c.72,0,1.28-.47,1.67-1.41l.8-1.87-3.45-8.86h1.16l2.61,7.11a4.68,4.68,0,0,1,.19.67h0l.1-.31.1-.32,2.77-7.15h1.11l-4.28,10.58a5.16,5.16,0,0,1-1.2,1.92A2.35,2.35,0,0,1,304.61,135.21Z"/><path class="cls-3" d="M319.34,131v-8h-5v8h-1.05v-8.91h7.12V131Z"/><path class="cls-3" d="M324.33,129.56v5.56h-1v-13h1v1.75h0a3.38,3.38,0,0,1,1.31-1.44,3.74,3.74,0,0,1,1.95-.52,3.3,3.3,0,0,1,2.67,1.17,4.8,4.8,0,0,1,1,3.2,5.5,5.5,0,0,1-1.12,3.62,3.6,3.6,0,0,1-2.93,1.35,3.09,3.09,0,0,1-2.87-1.68Zm0-2.26a3,3,0,0,0,.81,2.15,2.72,2.72,0,0,0,2.08.89,2.58,2.58,0,0,0,2.16-1.1,4.83,4.83,0,0,0,.83-3,4,4,0,0,0-.75-2.53,2.45,2.45,0,0,0-2-.94,3,3,0,0,0-1.62.44,2.75,2.75,0,0,0-1.1,1.19,3.64,3.64,0,0,0-.39,1.7Z"/><path class="cls-3" d="M338.76,131v-1.63h0a3.33,3.33,0,0,1-1.21,1.36,3.13,3.13,0,0,1-1.74.49,2.89,2.89,0,0,1-2-.7,2.37,2.37,0,0,1-.77-1.84q0-2.41,3.06-2.85l2.73-.4c0-1.76-.68-2.65-2.05-2.65A4.48,4.48,0,0,0,333.8,124v-1.15a5.54,5.54,0,0,1,3-.91,2.88,2.88,0,0,1,2.24.84,3.59,3.59,0,0,1,.77,2.49V131Zm-4.71-2.38a1.59,1.59,0,0,0,.52,1.23,2,2,0,0,0,1.38.47,2.64,2.64,0,0,0,2-.87,3.21,3.21,0,0,0,.8-2.25v-.88l-2.35.33a3.7,3.7,0,0,0-1.85.64A1.68,1.68,0,0,0,334.05,128.64Z"/><path class="cls-3" d="M349.16,128.46a2.4,2.4,0,0,1-.79,1.84,2.86,2.86,0,0,1-2,.72h-3.86v-8.91h3.6a3.11,3.11,0,0,1,2,.57,1.91,1.91,0,0,1,.72,1.59,2.16,2.16,0,0,1-.45,1.4,2.1,2.1,0,0,1-1.26.72,2.43,2.43,0,0,1,1.54.68A2,2,0,0,1,349.16,128.46Zm-1.42-4a1.21,1.21,0,0,0-.46-1A2,2,0,0,0,346,123h-2.44v3h2.24a2.33,2.33,0,0,0,1.44-.39A1.38,1.38,0,0,0,347.74,124.42Zm.35,4.07a1.36,1.36,0,0,0-.56-1.19,2.77,2.77,0,0,0-1.62-.4h-2.36v3.21h2.62a2.08,2.08,0,0,0,1.44-.44A1.49,1.49,0,0,0,348.09,128.49Z"/><path class="cls-3" d="M356.71,131v-8h-2.42a21.4,21.4,0,0,1-1.16,6.27c-.55,1.23-1.31,1.85-2.29,1.85a2.47,2.47,0,0,1-.6-.08v-.91a1.22,1.22,0,0,0,.55.11q1.05,0,1.68-2a28.22,28.22,0,0,0,.92-6.17h4.36V131Z"/><path class="cls-3" d="M361.1,126.72a4,4,0,0,0,.81,2.65,2.85,2.85,0,0,0,2.28,1,4.62,4.62,0,0,0,2.89-1.07v1a5.22,5.22,0,0,1-3.13.94,3.57,3.57,0,0,1-2.89-1.26,5.14,5.14,0,0,1-1.06-3.43,5.36,5.36,0,0,1,.53-2.38A4.1,4.1,0,0,1,362,122.5a3.79,3.79,0,0,1,2.08-.6,3.19,3.19,0,0,1,2.62,1.14,4.9,4.9,0,0,1,.93,3.18v.5Zm5.45-.91a3.62,3.62,0,0,0-.69-2.22,2.24,2.24,0,0,0-1.82-.79,2.59,2.59,0,0,0-2,.81,3.89,3.89,0,0,0-1,2.2Z"/><path class="cls-3" d="M375.9,131v-4.17h-5V131h-1.05v-8.91h1.05v3.83h5v-3.83H377V131Z"/><path class="cls-3" d="M386.07,131V123.7l-.25.38L380.76,131h-.91v-8.91h1v7.25a3,3,0,0,1,.31-.53l5-6.72h1V131Z"/><path class="cls-3" d="M394.81,131v-3.81h-1.38c-.75,0-1.37.51-1.84,1.51l-1.07,2.3h-1.24l1.27-2.58A2.81,2.81,0,0,1,392,127a2.43,2.43,0,0,1-1.62-.76,2.31,2.31,0,0,1-.54-1.58,2.25,2.25,0,0,1,.83-1.84,3.46,3.46,0,0,1,2.28-.68h2.95V131Zm0-8H393a2.35,2.35,0,0,0-1.52.42,1.49,1.49,0,0,0-.51,1.21q0,1.68,2,1.68h1.9Z"/><path class="cls-3" d="M409.63,130.62a4.69,4.69,0,0,1-2.42.62,4.17,4.17,0,0,1-2.15-.55,3.74,3.74,0,0,1-1.48-1.59,5.07,5.07,0,0,1-.52-2.34,5.48,5.48,0,0,1,.57-2.51,4.21,4.21,0,0,1,1.61-1.73,4.59,4.59,0,0,1,2.38-.62,4.89,4.89,0,0,1,2,.43v1.11a3.87,3.87,0,0,0-2.11-.64,3.25,3.25,0,0,0-1.78.5,3.19,3.19,0,0,0-1.19,1.37,4.44,4.44,0,0,0-.43,2,4,4,0,0,0,.86,2.67,2.89,2.89,0,0,0,2.31,1,3.91,3.91,0,0,0,2.32-.74Z"/><path class="cls-3" d="M412.24,126.72a4,4,0,0,0,.81,2.65,2.85,2.85,0,0,0,2.28,1,4.58,4.58,0,0,0,2.88-1.07v1a5.17,5.17,0,0,1-3.12.94A3.57,3.57,0,0,1,412.2,130a5.14,5.14,0,0,1-1.06-3.43,5.36,5.36,0,0,1,.53-2.38,4.1,4.1,0,0,1,1.46-1.67,3.76,3.76,0,0,1,2.07-.6,3.21,3.21,0,0,1,2.63,1.14,4.9,4.9,0,0,1,.93,3.18v.5Zm5.45-.91a3.62,3.62,0,0,0-.69-2.22,2.24,2.24,0,0,0-1.82-.79,2.59,2.59,0,0,0-2,.81,3.89,3.89,0,0,0-1,2.2Z"/><path class="cls-3" d="M422,129.56v5.56h-1v-13h1v1.75h0a3.38,3.38,0,0,1,1.31-1.44,3.74,3.74,0,0,1,1.95-.52,3.3,3.3,0,0,1,2.67,1.17,4.8,4.8,0,0,1,1,3.2,5.55,5.55,0,0,1-1.11,3.62,3.63,3.63,0,0,1-2.94,1.35,3.09,3.09,0,0,1-2.87-1.68Zm0-2.26a3,3,0,0,0,.82,2.15,2.69,2.69,0,0,0,2.07.89,2.58,2.58,0,0,0,2.16-1.1,4.83,4.83,0,0,0,.83-3,4,4,0,0,0-.75-2.53,2.45,2.45,0,0,0-2-.94,3,3,0,0,0-1.62.44,2.75,2.75,0,0,0-1.1,1.19,3.64,3.64,0,0,0-.39,1.7Z"/><path class="cls-3" d="M437.86,128.46a2.39,2.39,0,0,1-.78,1.84,2.87,2.87,0,0,1-2,.72h-3.86v-8.91h3.6a3.11,3.11,0,0,1,2,.57,1.91,1.91,0,0,1,.71,1.59,2.21,2.21,0,0,1-.44,1.4,2.1,2.1,0,0,1-1.26.72,2.43,2.43,0,0,1,1.54.68A2,2,0,0,1,437.86,128.46Zm-1.42-4a1.23,1.23,0,0,0-.45-1,2,2,0,0,0-1.29-.36h-2.44v3h2.23a2.29,2.29,0,0,0,1.44-.39A1.38,1.38,0,0,0,436.44,124.42Zm.35,4.07a1.34,1.34,0,0,0-.56-1.19,2.73,2.73,0,0,0-1.62-.4h-2.35v3.21h2.62a2.08,2.08,0,0,0,1.44-.44A1.49,1.49,0,0,0,436.79,128.49Z"/><path class="cls-3" d="M446.39,131V123.7l-.25.38L441.09,131h-.92v-8.91h1v7.25a2.94,2.94,0,0,1,.3-.53l5-6.72h1V131Z"/><path class="cls-3" d="M456.22,130.62a4.65,4.65,0,0,1-2.41.62,4.21,4.21,0,0,1-2.16-.55,3.77,3.77,0,0,1-1.47-1.59,5.07,5.07,0,0,1-.53-2.34,5.48,5.48,0,0,1,.57-2.51,4.23,4.23,0,0,1,1.62-1.73,4.55,4.55,0,0,1,2.37-.62,4.94,4.94,0,0,1,2,.43v1.11a3.9,3.9,0,0,0-2.12-.64,3.21,3.21,0,0,0-1.77.5,3.15,3.15,0,0,0-1.2,1.37,4.57,4.57,0,0,0-.42,2,4,4,0,0,0,.86,2.67,2.87,2.87,0,0,0,2.3,1,3.89,3.89,0,0,0,2.32-.74Z"/><path class="cls-3" d="M464.45,131v-4.17h-5V131h-1v-8.91h1v3.83h5v-3.83h1V131Z"/><path class="cls-3" d="M474.82,128.32a2.59,2.59,0,0,1-.78,2,2.82,2.82,0,0,1-2,.74h-3.65v-8.91h1.05v3.57H472a3,3,0,0,1,2.1.7A2.52,2.52,0,0,1,474.82,128.32Zm-1.08,0a1.6,1.6,0,0,0-.52-1.27,2.18,2.18,0,0,0-1.48-.46h-2.3v3.52h2.32a2.11,2.11,0,0,0,1.47-.47A1.68,1.68,0,0,0,473.74,128.32Zm2.89,2.7v-8.91h1V131Z"/><path class="cls-3" d="M488.51,131v-7.56q-.12.36-.36,1t-2.68,6.6h-.77l-2.58-5.93c-.11-.23-.23-.55-.38-.94l-.24-.69V131h-.94v-8.91h1.31l2.58,6c.24.61.42,1.07.53,1.38l.11.31.1-.27,3-7.46h1.36V131Z"/><path class="cls-3" d="M504.91,134.27V131h-7.56v-8.91h1v8h5v-8h1.05v8h1.36v4.15Z"/><path class="cls-3" d="M508.18,126.72a4,4,0,0,0,.82,2.65,2.83,2.83,0,0,0,2.28,1,4.62,4.62,0,0,0,2.88-1.07v1a5.17,5.17,0,0,1-3.12.94,3.59,3.59,0,0,1-2.9-1.26,5.19,5.19,0,0,1-1.06-3.43,5.36,5.36,0,0,1,.53-2.38,4.1,4.1,0,0,1,1.46-1.67,3.79,3.79,0,0,1,2.08-.6,3.19,3.19,0,0,1,2.62,1.14,4.84,4.84,0,0,1,.94,3.18v.5Zm5.45-.91a3.5,3.5,0,0,0-.69-2.22,2.24,2.24,0,0,0-1.82-.79,2.6,2.6,0,0,0-2,.81,3.82,3.82,0,0,0-1,2.2Z"/><path class="cls-3" d="M523,131v-4.17h-5V131h-1.05v-8.91H518v3.83h5v-3.83h1V131Z"/><path class="cls-3" d="M529.47,123v8h-1v-8h-2.7v-.91h6.44V123Z"/><path class="cls-3" d="M534.88,129.56v5.56h-1v-13h1v1.75h0a3.47,3.47,0,0,1,1.32-1.44,3.73,3.73,0,0,1,1.94-.52,3.32,3.32,0,0,1,2.68,1.17,4.86,4.86,0,0,1,1,3.2,5.55,5.55,0,0,1-1.11,3.62,3.61,3.61,0,0,1-2.93,1.35,3.1,3.1,0,0,1-2.88-1.68Zm0-2.26a3,3,0,0,0,.81,2.15,2.71,2.71,0,0,0,2.08.89,2.58,2.58,0,0,0,2.15-1.1,4.76,4.76,0,0,0,.84-3,4,4,0,0,0-.75-2.53,2.47,2.47,0,0,0-2-.94,3.07,3.07,0,0,0-1.62.44,2.88,2.88,0,0,0-1.1,1.19,3.76,3.76,0,0,0-.38,1.7Z"/><path class="cls-3" d="M547.74,131.24a4.41,4.41,0,0,1-2.26-.57,3.74,3.74,0,0,1-1.51-1.61,5.35,5.35,0,0,1-.53-2.42,4.88,4.88,0,0,1,1.19-3.46,4.25,4.25,0,0,1,3.26-1.28,4,4,0,0,1,3.06,1.24,5.67,5.67,0,0,1,0,6.82A4.08,4.08,0,0,1,547.74,131.24Zm.08-8.44a3,3,0,0,0-2.4,1,4.07,4.07,0,0,0-.89,2.81,4,4,0,0,0,.88,2.71,3,3,0,0,0,2.38,1,2.9,2.9,0,0,0,2.37-1,4.14,4.14,0,0,0,.83-2.76,4.22,4.22,0,0,0-.82-2.81A2.92,2.92,0,0,0,547.82,122.8Z"/><path class="cls-3" d="M562.28,131v-7.56q-.12.36-.36,1c-.15.41-1,2.61-2.68,6.6h-.77l-2.58-5.93c-.1-.23-.23-.55-.38-.94l-.24-.69V131h-.94v-8.91h1.31l2.58,6c.24.61.42,1.07.53,1.38l.11.31.11-.27,3-7.46h1.36V131Z"/><path class="cls-4" d="M227.25,62.36c.29,0,.63.25,1,.77a14.09,14.09,0,0,0,4.48,3.74A11.09,11.09,0,0,0,238,68.28c1.9,0,2.86-.67,2.86-2a5.66,5.66,0,0,0-1-2.89q-1-1.62-4.79-6.37a73.42,73.42,0,0,1-6.35-8.91,15.29,15.29,0,0,1-2.1-7.31,10.65,10.65,0,0,1,4-8.57,15.67,15.67,0,0,1,17.09-1.37,9.89,9.89,0,0,1,2.18,1.71,2.72,2.72,0,0,1,.92,1.62.86.86,0,0,1-.26.59A.72.72,0,0,1,250,35c-.28,0-.69-.3-1.22-.89a10.24,10.24,0,0,0-3.47-2.4,10.11,10.11,0,0,0-4.13-1,3.11,3.11,0,0,0-2,.62,1.93,1.93,0,0,0-.77,1.58,6,6,0,0,0,1,2.85,34.17,34.17,0,0,0,3.22,4.47q7.17,8.89,8.79,12a13.82,13.82,0,0,1,1.68,6.32,10.58,10.58,0,0,1-4.51,8.68,16.91,16.91,0,0,1-9.89,2.82,14.71,14.71,0,0,1-9.45-3.25c-1.9-1.51-2.86-2.7-2.86-3.55a1,1,0,0,1,.26-.67A.77.77,0,0,1,227.25,62.36Z"/><path d="M267.17,54.33v8.82a11.74,11.74,0,0,0,.26,3.25,2.3,2.3,0,0,0,2.42,1.31,10.1,10.1,0,0,0,5.6-1.81,16.18,16.18,0,0,0,4.8-5,8.69,8.69,0,0,1,.95-1.34.92.92,0,0,1,.64-.29.82.82,0,0,1,.68.36,1.46,1.46,0,0,1,.27.9,5.91,5.91,0,0,1-1.64,3.21A16.73,16.73,0,0,1,275.82,68a13.66,13.66,0,0,1-6.21,1.62,12.48,12.48,0,0,1-9.18-4.07,16,16,0,0,1-3.57-5.9,18.22,18.22,0,0,1-1.1-6.14,19,19,0,0,1,1-5.94,16.5,16.5,0,0,1,2.69-5.14,14,14,0,0,1,4.68-3.93,12.07,12.07,0,0,1,5.57-1.37,12.34,12.34,0,0,1,8.18,3.11q5.72,4.83,5.66,14h-5.69l-7.32,0Zm6.25-1.88v-8.3c0-1.78-.07-2.84-.1-3.19a2.3,2.3,0,0,0-.34-1q-.69-1.11-2.79-1.11c-1.43,0-2.33.43-2.68,1.28a13.3,13.3,0,0,0-.34,4v8.3l3,.11Z"/><path d="M299.86,46.7l-.05,10.93L299.9,69H287.36l0-1.56,0-5.81.09-10.45-.12-11.62,0-1.65h12.52v5.87a37.87,37.87,0,0,1,3.9-4.39,7.74,7.74,0,0,1,4.77-2.07,3.59,3.59,0,0,1,2.26.68,2.1,2.1,0,0,1,.89,1.74,1.84,1.84,0,0,1-.54,1.36,1.81,1.81,0,0,1-1.34.54,2.47,2.47,0,0,1-1.15-.34,3.84,3.84,0,0,0-1.77-.6,5.19,5.19,0,0,0-3.39,1.4A20.29,20.29,0,0,0,299.86,46.7Z"/><path d="M335.26,54.53q5.78-11.78,7-15.28a12.55,12.55,0,0,1,.91-2.12.9.9,0,0,1,.77-.45,1.31,1.31,0,0,1,.87.33.93.93,0,0,1,.39.72,4,4,0,0,1-.54,1.51L330.41,69.05l-.76,1.62-6.5-11.93-2.15-4-2.24-4-1.93-3.56-5.5-9.34h15.18l5.92,11.42Z"/><path d="M359.6,37.87v.83l-.05,4.44L359.5,50l-.07,10.48.09,5.89.05,2.56H347l.13-10.47.07-9.26-.05-4.87L347.1,39l0-1.09Zm-6.33-10q6.45,0,6.45,3.93a3.34,3.34,0,0,1-1.7,3,9,9,0,0,1-4.77,1.07q-6.13,0-6.13-4Q347.12,28,353.27,27.91Z"/><path d="M376.86,44.05v19l0,1.82a4.87,4.87,0,0,0,.38,2.35,1.69,1.69,0,0,0,1.53.58,9.38,9.38,0,0,0,5.66-2.06,15.34,15.34,0,0,0,4.54-5.54q.54-1,1.05-1a.86.86,0,0,1,.67.38,1.27,1.27,0,0,1,.31.81,5.53,5.53,0,0,1-1.42,2.89,18.29,18.29,0,0,1-3.29,3.35,13.13,13.13,0,0,1-8.21,3,12.72,12.72,0,0,1-9.88-4.33,17,17,0,0,1-4.45-11.93,16.72,16.72,0,0,1,4.69-12.13,12.9,12.9,0,0,1,9.69-4.1,13.17,13.17,0,0,1,8,2.54,11.32,11.32,0,0,1,2.4,2.32,3.72,3.72,0,0,1,.92,2.09,1.09,1.09,0,0,1-.26.73.85.85,0,0,1-.66.3c-.34,0-.78-.46-1.3-1.37a9.59,9.59,0,0,0-3.54-3.32A9.1,9.1,0,0,0,379.13,39a1.83,1.83,0,0,0-1.86.94A12.94,12.94,0,0,0,376.86,44.05Z"/><path d="M403.3,54.33v8.82a11.59,11.59,0,0,0,.27,3.25A2.28,2.28,0,0,0,406,67.71a10.15,10.15,0,0,0,5.61-1.81,16.27,16.27,0,0,0,4.79-5,7.88,7.88,0,0,1,1-1.34.88.88,0,0,1,.63-.29.83.83,0,0,1,.69.36,1.52,1.52,0,0,1,.26.9,5.87,5.87,0,0,1-1.63,3.21A16.67,16.67,0,0,1,412,68a13.63,13.63,0,0,1-6.21,1.62,12.48,12.48,0,0,1-9.18-4.07,16,16,0,0,1-3.56-5.9,18,18,0,0,1-1.1-6.14,18.94,18.94,0,0,1,1-5.94,16.5,16.5,0,0,1,2.69-5.14,14.08,14.08,0,0,1,4.69-3.93,12,12,0,0,1,5.56-1.37A12.34,12.34,0,0,1,414,40.21q5.72,4.83,5.67,14H414l-7.33,0Zm6.25-1.88v-8.3c0-1.78-.07-2.84-.1-3.19a2.17,2.17,0,0,0-.34-1,3,3,0,0,0-2.78-1.11c-1.44,0-2.33.43-2.69,1.28a13.3,13.3,0,0,0-.34,4v8.3l3,.11Z"/><path d="M329.7,74.86h4.21V88.1h.14c.87-1.06,1.74-2,2.56-2.94l10-10.3h5.22L340,86.51l12.7,15.81h-5L337,88.83l-3.09,3v10.47H329.7Z"/><path d="M358.12,93.11c.1,4.85,3.77,6.84,8,6.84a18,18,0,0,0,6.48-1l.72,2.56a22,22,0,0,1-7.78,1.23c-7.2,0-11.5-4-11.5-10s4.16-10.63,11-10.63c7.64,0,9.66,5.66,9.66,9.29a11.44,11.44,0,0,1-.14,1.67Zm12.47-2.57c.05-2.28-1.11-5.82-5.9-5.82a6.46,6.46,0,0,0-6.52,5.82Z"/><path d="M382.33,93.11c.1,4.85,3.77,6.84,8,6.84a18,18,0,0,0,6.48-1l.72,2.56a22,22,0,0,1-7.78,1.23c-7.2,0-11.5-4-11.5-10s4.16-10.63,11-10.63c7.64,0,9.67,5.66,9.67,9.29a11.16,11.16,0,0,1-.15,1.67Zm12.47-2.57c.05-2.28-1.11-5.82-5.9-5.82a6.46,6.46,0,0,0-6.52,5.82Z"/><path d="M404.18,89c0-2.53-.1-4.57-.2-6.44h3.82L408,86h.1c1.74-2.4,4.5-3.83,8.31-3.83a9.58,9.58,0,0,1,9.91,10c0,7.09-5.12,10.6-10.63,10.6-3.09,0-5.8-1.14-7.2-3.1h-.1v10.72h-4.2Zm4.2,5.25a6.69,6.69,0,0,0,.2,1.47A6.45,6.45,0,0,0,415,100c4.5,0,7.11-3.09,7.11-7.61,0-4-2.47-7.34-7-7.34a6.63,6.63,0,0,0-6.43,4.44,5.18,5.18,0,0,0-.29,1.47Z"/><path d="M434,93.11c.1,4.85,3.77,6.84,8,6.84a17.89,17.89,0,0,0,6.47-1l.73,2.56a22,22,0,0,1-7.78,1.23c-7.2,0-11.5-4-11.5-10s4.15-10.63,11-10.63c7.64,0,9.67,5.66,9.67,9.29a11.16,11.16,0,0,1-.15,1.67Zm12.47-2.57c.05-2.28-1.11-5.82-5.89-5.82a6.47,6.47,0,0,0-6.53,5.82Z"/><path d="M455.89,88.75c0-2.32-.05-4.32-.19-6.15h3.72l.14,3.87h.2a6.91,6.91,0,0,1,6.47-4.32,5.57,5.57,0,0,1,1.21.12v3.38a7.71,7.71,0,0,0-1.45-.12,5.63,5.63,0,0,0-5.7,4.61,8.22,8.22,0,0,0-.2,1.67v10.51h-4.2Z"/><path id="Рука" class="cls-5" d="M119.71,116.21a15.26,15.26,0,0,1,.07,2.66,8.26,8.26,0,0,1-.19,1.4,6.71,6.71,0,0,1-.22.8,5.42,5.42,0,0,1-2,2.37l-.1.07a11.56,11.56,0,0,1-2.48,1.22,17.4,17.4,0,0,0-4.58,2.13,1.32,1.32,0,0,0-.65.84c-.09.61.55,1,1.48,2.06a11.33,11.33,0,0,1,1.81,2.58,8,8,0,0,1,.71,2.52,13.35,13.35,0,0,1-.13,4.13,26,26,0,0,1-.51,2.71,23.61,23.61,0,0,1-1.36,3.87,27.42,27.42,0,0,1-1.48,2.71c-.21.33-.73,1.1-1.81,2.58s-1.76,2.42-2.39,3.16c-1.1,1.32-1.22,1.25-2.13,2.39A31.2,31.2,0,0,0,102,159c-.66,1-1.17,1.93-1.54,2.62l-1.76,2.8c-1.81,2.9-1.89,3-2.13,3.43-1.15,2-1.28,2.42-2.38,4.32-.83,1.42-1.56,2.55-2,3.26a92.2,92.2,0,0,1-5.64,7.32c-1.24,1.43-2.15,2.38-2.94,3.13-1.17,1.13-2.27,2-2.74,2.42L80,189H75l1.16-.79c1.54-1,2-1.21,3-1.87a19,19,0,0,0,2.23-2.06c.5-.51,1.55-1.57,2.74-3a73.46,73.46,0,0,0,5.61-7.68c1.6-2.53,1.09-2,5-8.84,1.23-2.13,2.07-3.54,3.22-5.29a54.61,54.61,0,0,1,3.36-4.72c1.65-2,1.85-1.91,3.61-4.13a39.16,39.16,0,0,0,3-4.19,24.49,24.49,0,0,0,1.73-3.24,20.26,20.26,0,0,0,1.43-4.89,14.65,14.65,0,0,0,.2-3.55,9.64,9.64,0,0,0-.22-1.9,5.49,5.49,0,0,0-.17-.55,7.51,7.51,0,0,0-1.73-2.91,6.93,6.93,0,0,0-2.37-1.55l2.35-2.13,1.79-1.6c1.07-.57,2-1,2.61-1.26a10,10,0,0,0,2.32-1.12,3.73,3.73,0,0,0,1.53-2.11,2.92,2.92,0,0,0,0-1.26Zm-106.1-14.4c.93-.32,1.88-.61,1.88-.61.6-.18,1.76-.53,3.32-.9,1.24-.29,3.51-.78,8.49-1.55,2.19-.34,3.32-.52,5-.73s4.37-.54,7.85-.73c1.8-.1,3-.12,5.34-.15,3.85-.06,6.78,0,9.34,0,2.2,0,5,.11,8.23.25,2.39.14,5.12.36,8.13.72,1.05.12,2.14.27,4.32.56,3.89.52,5.84.79,8.12,1.18,1.31.22,3.2.57,5.49,1.06a81.57,81.57,0,0,1,8.5,2.08c1.48.45,2.89.93,4.24,1.42a33.53,33.53,0,0,1,4.37,1.78c.45.22.89.45,1.31.68l1.84-1.55-1.51-.76a63,63,0,0,0-6.27-2.5c-1.43-.48-2.8-.88-4.11-1.21-1.94-.49-4.3-1-7-1.57-.59-.11-3.27-.64-6.89-1.17-2.14-.32-4.75-.67-7.74-1l-7.8-.66-5.76-.29-7.25-.18h-7l-4.9.17c-2.11.11-3.94.25-5.43.39-1.33.12-3.43.32-6.17.7s-4.58.74-5.06.83c-2.08.39-3.64.75-5,1.06-2,.47-3,.7-4,1a47.59,47.59,0,0,0-5.83,2.25C8.43,103.89,6.42,105,6.42,105A64.55,64.55,0,0,1,13.61,101.81Zm72.55,26.47c-2,.68-3.65,1.45-4.21,1.7-.94.43-1.74.82-2.34,1.14a65.21,65.21,0,0,0-9.34,6.14c-2.72,2.15-3.34,3-7.36,6.34-1.36,1.13-4.13,3.42-7.7,6a103.6,103.6,0,0,1-11.71,7.51,61.76,61.76,0,0,1-11.28,5.13,53.48,53.48,0,0,1-8.08,1.93,18.08,18.08,0,0,0,1-4.89,15.26,15.26,0,0,0-.41-5c-.22-.81-.21-.48-.9-2.55a18.69,18.69,0,0,1-1.11-4.4,5.65,5.65,0,0,1,.09-2.42,5.31,5.31,0,0,1,1.84-2.57,6.44,6.44,0,0,1,2.18-1.06,60,60,0,0,0,6.87-2.81c.58-.27,1.87-1,4.46-2.51,2-1.18,2.73-1.63,5.9-3.49,2-1.16,3-1.75,3.53-2a23.4,23.4,0,0,1,6-2.42,18.56,18.56,0,0,1,5-.24c7.06.2,11.71,0,11.71,0s-2.37.05-5.18-.09c-2.63-.13-3.3-.29-5-.39a28.45,28.45,0,0,0-8.91.53c-1.49.38-3.51,1.41-7.55,3.49-1.56.8-1.72.91-6.58,3.53-3.93,2.12-5.91,3.18-6.49,3.39-3,1.09-4.32.94-6.72,2.52a6.82,6.82,0,0,0-2.81,2.9,7.46,7.46,0,0,0-.34,4,29.12,29.12,0,0,0,1,4.21c.45,1.78.68,2.69.77,3.34a16.39,16.39,0,0,1,.05,4.4,8.83,8.83,0,0,1-1.5,4.65,8.21,8.21,0,0,1-3.49,2.37,18,18,0,0,1-5.9,1.4c-2.62.3-4.25.14-4.26.3s2.18.55,4.4.62a25,25,0,0,0,4.7-.33c.47-.08,1.23-.23,2.71-.54,2.62-.54,4.65-1,5.5-1.17,2.31-.51,3.46-.76,3.84-.86a46.9,46.9,0,0,0,7.5-2.66,69.76,69.76,0,0,0,7.51-3.87c1-.6,3.48-2,6.53-4.07,1.51-1,4-2.76,7-5.13,2.09-1.66,3.49-2.89,6.19-5.28,5.17-4.56,5.52-5.18,8.71-7.74,3-2.42,5.21-3.87,6-4.36a48.5,48.5,0,0,1,6.19-3.58,39.67,39.67,0,0,1,9.2-2.9A35.4,35.4,0,0,0,86.16,128.28Zm-52.4,12.84a21.9,21.9,0,0,1,8.46-2.78,12.19,12.19,0,0,1,4.72.31,36.67,36.67,0,0,1,3.8,1.69,31.25,31.25,0,0,0,4.45,1.55c3.35.85,6.36.73,6.39.52s-3.08,0-6.71-1.87c-1.12-.57-1.29-.82-5-3-2.16-1.28-3-1.81-4.32-2.06a9.36,9.36,0,0,0-3.87.19c-1.27.27-4.87,1.2-9.68,5.17-2.8,2.3-4.86,4.68-4.71,4.84S29.64,143.35,33.76,141.12Z"/><path id="Пинцет" class="cls-6" d="M185.5,64.52l-11.62.64-4.48.32-2.36.18-.64.06a8.38,8.38,0,0,0-2,.3,5.57,5.57,0,0,0-.85.34,6.61,6.61,0,0,0-1.36.93l-5.36,5.94-6.77,7.68-8.13,8.52-8.71,6.51-7.37,5.79-5.67,3.64,2.94-3.22,3.93-3.75,4.55-4.2,8.46-8.9,4.65-5.09,2.7-3.33,5.23-6.23c1-1.24,1.92-2.27,2.67-3.1a8,8,0,0,1,2.56-2.19,6.09,6.09,0,0,1,2.1-.58l3.58-.33,3.48-.32,9.87-.9-.32-.52H166l-2.45.12-4.49.22a7.85,7.85,0,0,0-1.16.18,7,7,0,0,0-3.07,1.64l-1.94,2c-.84.92-1.67,1.84-2.51,2.75l-4,4.78-8.9,9.66-9.56,7.76-8.73,6.72-12.46,9.74L94.44,118.4,87,124.73l-6,4.9a53.28,53.28,0,0,1,5.77-2.27,29.48,29.48,0,0,1,6-1.5,26.77,26.77,0,0,1,5.35-.06,33.17,33.17,0,0,1,4.37.63c1.48.3,2.73.65,3.7.94l17.29-15.44,13.94-13.6,5.23-5.22c1.59-1.73,3.19-3.45,4.78-5.17l4.42-5,4.93-5.71q3.14-3.57,6.26-7.13c.13-.13.28-.29.46-.45A6.75,6.75,0,0,1,167,67.94l.23,0L180.82,66l5-.77Z"/><circle id="Кружок_красный" data-name="Кружок красный" class="cls-7" cx="287.47" cy="91.09" r="16.08"/></g></g></svg>