<svg id="Слой_1" data-name="Слой 1" xmlns="http://www.w3.org/2000/svg" xmlns:xlink="http://www.w3.org/1999/xlink" viewBox="0 0 285.33 110.52"><defs><style>.cls-1,.cls-2,.cls-3,.cls-4,.cls-5,.cls-7,.cls-8,.cls-9{isolation:isolate;}.cls-2,.cls-3,.cls-4{font-size:53.54px;font-family:Broadway;}.cls-3{fill:none;stroke-width:0.2px;}.cls-3,.cls-6{stroke:#000;stroke-miterlimit:10;}.cls-4{letter-spacing:0.03em;}.cls-5{font-size:37.41px;font-family:ArialMT, Arial;}.cls-6{stroke-width:0.2px;}.cls-7,.cls-8{opacity:0.83;}.cls-7{fill:url(#Безымянный_градиент_2);}.cls-9{font-size:8.62px;fill:#fff;font-family:MalgunGothic-Semilight, Malgun Gothic;font-weight:300;}</style><linearGradient id="Безымянный_градиент_2" x1="630.32" y1="-20.87" x2="647.55" y2="-35.16" gradientTransform="matrix(-0.98, 0.18, 0.18, 0.98, 727.94, -14.8)" gradientUnits="userSpaceOnUse"><stop offset="0.76" stop-color="#f71b0d"/><stop offset="1" stop-color="#fff"/></linearGradient></defs><title>logo_v1</title><g id="Слой_9" data-name="Слой 9"><g class="cls-1"><text class="cls-2" transform="translate(37.3 55.07) scale(0.86 1)">S</text><text class="cls-3" transform="translate(37.3 55.07) scale(0.86 1)">S</text><text class="cls-2" transform="translate(64.79 55.07) scale(0.86 1)">e</text><text class="cls-4" transform="translate(92.36 55.07) scale(0.86 1)">r</text><text class="cls-2" transform="translate(118.28 55.07) scale(0.86 1)">vice</text></g><text class="cls-5" transform="translate(130.32 85.69) scale(1.19 1)">Keeper</text></g><path d="M39.5,73.58a1.2,1.2,0,0,0,0-2.4A1.2,1.2,0,0,0,39.5,73.58Z"/><path d="M100.31,70.38a1.2,1.2,0,0,0,0-2.4A1.2,1.2,0,0,0,100.31,70.38Z"/><path d="M122.54,77.65a1.2,1.2,0,0,0,0-2.4A1.2,1.2,0,0,0,122.54,77.65Z"/><path d="M87.74,66.16a1.2,1.2,0,0,0,0-2.4A1.2,1.2,0,0,0,87.74,66.16Z"/><path class="cls-6" d="M100.31,68.5l-25.4-.06-5.74-5.6H48.47l-8.93,8.49,1,1,8.6-8.23h19.4l5.64,5.4.31.26,25.82,0Z"/><polygon class="cls-6" points="88.86 64.3 102.46 64.3 111.21 73.1 120.15 73.1 122.86 75.64 122.01 76.79 119.61 74.44 110.86 74.57 101.93 65.68 88.55 65.9 88.86 64.3"/><path class="cls-7" d="M94.91,90.15a14.77,14.77,0,1,1,14.77-14.77A14.77,14.77,0,0,1,94.91,90.15"/><path d="M11.24,8.24q.09,5.32.16,10.65l.11,10.66.1,10.66.08,10.65c0,7.11.09,14.21.11,21.32l0,10.66V93.49l-.61-.61,24.68-.26,24.69-.23,24.68-.22L110,92l24.68-.16,24.69-.14L184,91.56l12.34,0h12.35l-12.34.23L184,92l-24.68.38-24.68.38L110,93l-24.69.3-24.68.28-24.69.26-24.68.24h-.61V82.85l0-10.65q0-10.66.11-21.32l.08-10.65L11,29.57l.12-10.65Q11.17,13.56,11.24,8.24Z"/><g id="Слой_11" data-name="Слой 11"><rect class="cls-8" x="47.7" y="97.66" width="218.67" height="9.44"/><text class="cls-9" transform="translate(52.27 104.37) scale(1.16 1)">система управления сервисным центром</text></g></svg>