<?xml version="1.0" encoding="iso-8859-1"?>
<!-- Generator: Adobe Illustrator 19.0.0, SVG Export Plug-In . SVG Version: 6.00 Build 0)  -->
<svg version="1.1" id="Layer_1" xmlns="http://www.w3.org/2000/svg" xmlns:xlink="http://www.w3.org/1999/xlink" x="0px" y="0px"
	 viewBox="0 0 496 496" style="enable-background:new 0 0 496 496;" xml:space="preserve">
<rect x="456" y="144" style="fill:#333333;" width="16" height="152"/>
<g>
	<rect x="280" y="24" style="fill:#F9BA48;" width="160" height="32"/>
	<circle style="fill:#F9BA48;" cx="392" cy="296" r="80"/>
</g>
<g>
	<rect x="440" y="32" style="fill:#333333;" width="56" height="16"/>
	<path style="fill:#333333;" d="M48,32c-13.232,0-24,10.768-24,24s10.768,24,24,24s24-10.768,24-24S61.232,32,48,32z M48,64
		c-4.416,0-8-3.584-8-8s3.584-8,8-8s8,3.584,8,8S52.416,64,48,64z"/>
	<rect x="120" y="184" style="fill:#333333;" width="16" height="64"/>
	<rect x="120" y="264" style="fill:#333333;" width="16" height="16"/>
	<path style="fill:#333333;" d="M456,416H272c-13.232,0-24-10.768-24-24V247.192c18.232-3.72,32-19.872,32-39.192v-40h-16v-24h-16
		v24h-16v-24h-16v24h-16v40c0,19.312,13.768,35.472,32,39.192V392c0,22.056,17.944,40,40,40h184c13.232,0,24,10.768,24,24
		s-10.768,24-24,24H144c-13.232,0-24-10.768-24-24V344h16v-32.584c18.08-2.808,32-18.344,32-37.2v-99.384
		c0-6.104,3.392-11.584,8.84-14.312L200,148.944V94.936l56-8V72h32V8h-32V0H24C10.768,0,0,10.768,0,24v52.472
		C0,86.816,6.592,95.968,16.408,99.24l48.312,16.112c3.688,1.224,5.952,4.912,5.376,8.768l-21.68,144.504
		c-0.272,1.856-0.416,3.72-0.416,5.592C48,295.056,64.944,312,85.784,312H88v32h16v112c0,22.056,17.944,40,40,40h312
		c22.056,0,40-17.944,40-40S478.056,416,456,416z M216,208v-24h48v24c0,13.232-10.768,24-24,24S216,221.232,216,208z M272,24v32h-16
		V24H272z M85.784,296C73.776,296,64,286.224,64,274.216c0-1.08,0.08-2.168,0.24-3.224L85.92,126.48
		c1.728-11.56-5.072-22.632-16.152-26.312L21.464,84.064C18.192,82.968,16,79.912,16,76.472V24c0-4.416,3.584-8,8-8h216v57.064
		l-56,8v57.992l-14.312,7.16C158.784,151.664,152,162.632,152,174.832v99.384c0,12.008-9.776,21.784-21.784,21.784H88H85.784z
		 M120,312v16h-16v-16H120z"/>
	<path style="fill:#333333;" d="M392,336c22.056,0,40-17.944,40-40s-17.944-40-40-40s-40,17.944-40,40S369.944,336,392,336z
		 M392,272c13.232,0,24,10.768,24,24s-10.768,24-24,24s-24-10.768-24-24S378.768,272,392,272z"/>
</g>
<g>
</g>
<g>
</g>
<g>
</g>
<g>
</g>
<g>
</g>
<g>
</g>
<g>
</g>
<g>
</g>
<g>
</g>
<g>
</g>
<g>
</g>
<g>
</g>
<g>
</g>
<g>
</g>
<g>
</g>
</svg>
