<?xml version="1.0" encoding="iso-8859-1"?>
<!-- Generator: Adobe Illustrator 19.0.0, SVG Export Plug-In . SVG Version: 6.00 Build 0)  -->
<svg version="1.1" id="Layer_1" xmlns="http://www.w3.org/2000/svg" xmlns:xlink="http://www.w3.org/1999/xlink" x="0px" y="0px"
	 viewBox="0 0 32 32" style="enable-background:new 0 0 32 32;" xml:space="preserve">
<g>
	<g>
		<path d="M31.594,4.881C31.175,4.474,30.64,4.489,30.282,4.5L1.955,4.504L1.762,4.499c-0.374-0.011-0.925-0.027-1.355,0.39
			C0.222,5.07,0,5.396,0,5.926v20.578c0,0.552,0.447,1,1,1s1-0.448,1-1v-20h28v20c0,0.552,0.447,1,1,1s1-0.448,1-1V5.926
			C32,5.388,31.779,5.061,31.594,4.881z"/>
	</g>
</g>
<g>
	<g>
		<path d="M31,24.504H1c-0.553,0-1,0.448-1,1s0.447,1,1,1h30c0.553,0,1-0.448,1-1S31.553,24.504,31,24.504z"/>
	</g>
</g>
<g>
	<g>
		<path d="M31,14.504H1c-0.553,0-1,0.448-1,1c0,0.552,0.447,1,1,1h30c0.553,0,1-0.448,1-1C32,14.952,31.553,14.504,31,14.504z"/>
	</g>
</g>
<g>
	<g>
		<path d="M31,9.504H1c-0.553,0-1,0.448-1,1s0.447,1,1,1h30c0.553,0,1-0.448,1-1S31.553,9.504,31,9.504z"/>
	</g>
</g>
<g>
	<g>
		<path d="M31,19.504H1c-0.553,0-1,0.448-1,1s0.447,1,1,1h30c0.553,0,1-0.448,1-1S31.553,19.504,31,19.504z"/>
	</g>
</g>
<g>
	<g>
		<path d="M13,4.504c-0.553,0-1,0.448-1,1v20c0,0.552,0.447,1,1,1s1-0.448,1-1v-20C14,4.952,13.553,4.504,13,4.504z"/>
	</g>
</g>
<g>
	<g>
		<path d="M7,4.504c-0.553,0-1,0.448-1,1v20c0,0.552,0.447,1,1,1s1-0.448,1-1v-20C8,4.952,7.553,4.504,7,4.504z"/>
	</g>
</g>
<g>
</g>
<g>
</g>
<g>
</g>
<g>
</g>
<g>
</g>
<g>
</g>
<g>
</g>
<g>
</g>
<g>
</g>
<g>
</g>
<g>
</g>
<g>
</g>
<g>
</g>
<g>
</g>
<g>
</g>
</svg>
