<?xml version="1.0" encoding="iso-8859-1"?>
<!-- Generator: Adobe Illustrator 19.0.0, SVG Export Plug-In . SVG Version: 6.00 Build 0)  -->
<svg version="1.1" id="Layer_1" xmlns="http://www.w3.org/2000/svg" xmlns:xlink="http://www.w3.org/1999/xlink" x="0px" y="0px"
	 viewBox="0 0 512 512" style="enable-background:new 0 0 512 512;" xml:space="preserve">
<g>
	<g>
		<path d="M505.52,78.454c-6.784-6.672-15.264-6.56-21.648-6.448L31.28,72.022l-2.448-0.016c-6.512-0.08-15.376-0.24-22.336,6.608
			C3.536,81.526,0,86.79,0,95.286v328.736c0,8.832,7.152,16,16,16s16-7.168,16-16v-320h448v320c0,8.832,7.152,16,16,16
			c8.848,0,16-7.168,16-16V95.286C512,86.662,508.464,81.366,505.52,78.454z"/>
	</g>
</g>
<g>
	<g>
		<path d="M496,392.022H16c-8.848,0-16,7.168-16,16c0,8.832,7.152,16,16,16h480c8.848,0,16-7.168,16-16
			C512,399.19,504.848,392.022,496,392.022z"/>
	</g>
</g>
<g>
	<g>
		<path d="M496,232.022H16c-8.848,0-16,7.168-16,16c0,8.832,7.152,16,16,16h480c8.848,0,16-7.168,16-16
			C512,239.19,504.848,232.022,496,232.022z"/>
	</g>
</g>
<g>
	<g>
		<path d="M496,152.022H16c-8.848,0-16,7.168-16,16c0,8.832,7.152,16,16,16h480c8.848,0,16-7.168,16-16
			C512,159.19,504.848,152.022,496,152.022z"/>
	</g>
</g>
<g>
	<g>
		<path d="M496,312.022H16c-8.848,0-16,7.168-16,16c0,8.832,7.152,16,16,16h480c8.848,0,16-7.168,16-16
			C512,319.19,504.848,312.022,496,312.022z"/>
	</g>
</g>
<g>
	<g>
		<path d="M208,72.022c-8.848,0-16,7.168-16,16v320c0,8.832,7.152,16,16,16c8.848,0,16-7.168,16-16v-320
			C224,79.19,216.848,72.022,208,72.022z"/>
	</g>
</g>
<g>
	<g>
		<path d="M112,72.022c-8.848,0-16,7.168-16,16v320c0,8.832,7.152,16,16,16s16-7.168,16-16v-320
			C128,79.19,120.848,72.022,112,72.022z"/>
	</g>
</g>
<g>
	<g>
		<path d="M400,72.022c-8.848,0-16,7.168-16,16v320c0,8.832,7.152,16,16,16c8.848,0,16-7.168,16-16v-320
			C416,79.19,408.848,72.022,400,72.022z"/>
	</g>
</g>
<g>
	<g>
		<path d="M304,72.022c-8.848,0-16,7.168-16,16v320c0,8.832,7.152,16,16,16c8.848,0,16-7.168,16-16v-320
			C320,79.19,312.848,72.022,304,72.022z"/>
	</g>
</g>
<g>
</g>
<g>
</g>
<g>
</g>
<g>
</g>
<g>
</g>
<g>
</g>
<g>
</g>
<g>
</g>
<g>
</g>
<g>
</g>
<g>
</g>
<g>
</g>
<g>
</g>
<g>
</g>
<g>
</g>
</svg>
