<svg height="448pt" viewBox="-48 0 448 448" width="448pt" xmlns="http://www.w3.org/2000/svg"><path d="m336 208v-144h-320v144zm-32-48h16v16h-16zm0 24h16v16h-16zm-64-24h48v16h-48zm0 24h48v16h-48zm-96-112h64c13.253906 0 24 10.746094 24 24s-10.746094 24-24 24h-64c-13.253906 0-24-10.746094-24-24s10.746094-24 24-24zm0 0"/><path d="m144 104h64c4.417969 0 8-3.582031 8-8s-3.582031-8-8-8h-64c-4.417969 0-8 3.582031-8 8s3.582031 8 8 8zm0 0"/><path d="m208 312h-64c-4.417969 0-8 3.582031-8 8s3.582031 8 8 8h64c4.417969 0 8-3.582031 8-8s-3.582031-8-8-8zm0 0"/><path d="m0 0h352v48h-352zm0 0"/><path d="m0 224h352v48h-352zm0 0"/><path d="m16 288v160h320v-160zm192 56h-64c-13.253906 0-24-10.746094-24-24s10.746094-24 24-24h64c13.253906 0 24 10.746094 24 24s-10.746094 24-24 24zm80 96h-48v-16h48zm0-24h-48v-16h48zm32 24h-16v-16h16zm0-24h-16v-16h16zm0 0"/></svg>